<?xml version="1.0" encoding="UTF-8"?>
<svg data-bbox="66.149 58.773 371.978 371.979" xmlns="http://www.w3.org/2000/svg" viewBox="0 0 500 500" data-type="color">
    <g>
        <path d="M248.796 373.21c-1.38-1.38-3.197-2.106-5.158-2.106s-3.778.8-5.158 2.107c-1.38 1.38-2.107 3.197-2.107 5.158 0 1.89.799 3.778 2.107 5.158 1.38 1.38 3.196 2.107 5.158 2.107s3.778-.799 5.158-2.107c1.38-1.38 2.107-3.196 2.107-5.158 0-1.961-.8-3.85-2.107-5.158z" fill="#ffffff" data-color="1"/>
        <path d="M283.378 306.153v-53.4a7.255 7.255 0 0 0-3.196-6.03c-2.034-1.38-4.505-1.598-6.757-.726l-125.18 50.42h-40.394c-22.958 0-41.702 18.672-41.702 41.703s18.744 41.702 41.702 41.702h4.795v43.664c0 3.996 3.27 7.265 7.265 7.265h29.642c3.996 0 7.266-3.27 7.266-7.265v-40.104l116.534 46.86c.871.364 1.816.51 2.688.51 1.453 0 2.833-.437 4.068-1.236a7.255 7.255 0 0 0 3.197-6.03v-53.472c14.603-3.342 25.5-16.347 25.5-31.894.073-15.548-10.897-28.625-25.428-31.967zM142.361 416.221h-15.184v-36.399h15.111l.073 36.399zm0-50.93h-34.51c-14.966 0-27.172-12.205-27.172-27.171s12.206-27.172 27.172-27.172h34.437l.073 54.344zm126.487 47.443-111.957-45.045v-59.138l79.482-32.04v72.143c0 3.996 3.269 7.266 7.265 7.266s7.265-3.27 7.265-7.266V270.7l17.945-7.193v149.228zm14.53-57.904v-33.42c6.467 2.833 10.97 9.227 10.97 16.71 0 7.483-4.576 13.876-10.97 16.71z" fill="#ffffff" data-color="1"/>
        <path d="M378.19 331.073h-41.122c-3.996 0-7.265 3.269-7.265 7.265s3.27 7.265 7.265 7.265h41.121c3.996 0 7.266-3.27 7.266-7.265s-3.27-7.265-7.266-7.265z" fill="#ffffff" data-color="1"/>
        <path d="M344.406 277.819a7.235 7.235 0 0 0-10.244 0l-14.24 14.167a7.235 7.235 0 0 0 0 10.244c1.453 1.453 3.27 2.107 5.159 2.107s3.705-.727 5.158-2.107l14.167-14.167a7.235 7.235 0 0 0 0-10.244z" fill="#ffffff" data-color="1"/>
        <path d="m344.987 387.887-14.675-14.676a7.235 7.235 0 0 0-10.244 0 7.235 7.235 0 0 0 0 10.244l14.675 14.675c1.453 1.454 3.27 2.107 5.159 2.107s3.705-.726 5.158-2.107c2.76-2.833 2.76-7.41-.073-10.243z" fill="#ffffff" data-color="1"/>
        <path d="M409.066 58.773H273.934c-16.056 0-29.061 13.005-29.061 29.06v2.907H122.818c-9.59 0-17.437 7.846-17.437 17.436v114.79c0 9.59 7.846 17.437 17.437 17.437h7.483v22.304c0 2.906 1.743 5.594 4.504 6.684.872.363 1.816.581 2.76.581 1.89 0 3.779-.726 5.16-2.107l27.389-27.39h144.287c9.59 0 17.436-7.846 17.436-17.436v-21.795h77.23c16.056 0 29.06-13.005 29.06-29.061v-84.35c0-16.055-13.004-29.06-29.06-29.06zM317.38 222.967a2.915 2.915 0 0 1-2.906 2.906H167.135c-1.961 0-3.778.799-5.158 2.107l-17.146 17.145v-11.987c0-3.996-3.27-7.265-7.265-7.265h-14.748a2.915 2.915 0 0 1-2.907-2.906v-114.79a2.915 2.915 0 0 1 2.907-2.907h122.055v66.84c0 16.056 13.005 29.06 29.06 29.06h43.447v21.797zm106.217-50.857c0 7.992-6.539 14.53-14.53 14.53H273.933c-7.992 0-14.53-6.538-14.53-14.53V87.834c0-7.992 6.538-14.53 14.53-14.53h135.132c7.992 0 14.53 6.538 14.53 14.53v84.276z" fill="#ffffff" data-color="1"/>
        <path d="m370.706 123.651-49.694-28.697a7.217 7.217 0 0 0-7.265 0 7.29 7.29 0 0 0-3.633 6.32v57.396a7.29 7.29 0 0 0 3.633 6.32c1.09.654 2.398.945 3.633.945s2.542-.29 3.632-.945l49.694-28.697a7.29 7.29 0 0 0 3.633-6.321 7.29 7.29 0 0 0-3.633-6.32zm-46.134 22.45v-32.258l27.971 16.129-27.97 16.129z" fill="#ffffff" data-color="1"/>
        <path d="M221.988 135.058h-72.652c-3.996 0-7.266 3.269-7.266 7.265s3.27 7.265 7.266 7.265h72.652c3.995 0 7.265-3.27 7.265-7.265s-3.27-7.265-7.265-7.265z" fill="#ffffff" data-color="1"/>
        <path d="M227.146 177.85c-1.38-1.38-3.197-2.107-5.158-2.107s-3.778.799-5.159 2.107c-1.38 1.38-2.107 3.196-2.107 5.158s.8 3.778 2.107 5.158c1.38 1.38 3.197 2.107 5.159 2.107 1.888 0 3.777-.8 5.158-2.107 1.38-1.38 2.107-3.196 2.107-5.158s-.8-3.778-2.107-5.158z" fill="#ffffff" data-color="1"/>
        <path d="M194.743 175.743h-45.407c-3.996 0-7.266 3.27-7.266 7.265s3.27 7.265 7.266 7.265h45.407c3.996 0 7.265-3.27 7.265-7.265s-3.27-7.265-7.265-7.265z" fill="#ffffff" data-color="1"/>
    </g>
</svg>
