<?xml version="1.0" encoding="UTF-8"?>
<svg data-bbox="39.104 74.257 416.915 108.857" xmlns="http://www.w3.org/2000/svg" viewBox="0 0 500 500" data-type="color">
    <g>
        <path d="M151.693 91.41c6.825-2.08 14.409-3.604 17.397-3.505 1.09.023 1.857.785 2.25 2.237.252.88.181 1.32-.27 1.795-1.45 1.527-7.915 4.518-27.812 12.91-8.145 3.423-11.296 5.599-12.849 8.93-.884 1.913-1.44 2.46-3.095 3.057-1.828.66-3.466.21-5.23-1.404-3.651-3.394-3.66-7.236-.054-11.239 2.696-2.982 3.715-3.522 14.662-7.541 5.492-2.051 12.229-4.378 15-5.24z" fill="#353b47" data-color="1"/>
        <path d="M204.813 75.017c11.914-1.25 24.352-.957 37.54.867 9.288 1.29 15.523 2.574 24.101 4.987 8.608 2.402 9.336 2.694 9.911 4.288.564 1.563.002 3.186-1.246 3.636-.522.189-2.879-.07-6.182-.68-19.898-3.698-39.996-4.587-61.643-2.77-3.854.317-6.209.335-6.984.095-3.135-1.051-4.108-5.93-1.672-8.541 1.203-1.3 1.551-1.426 6.175-1.882z" fill="#353b47" data-color="1"/>
        <path d="M88.625 123.414c2.746.43 4.68 3.334 3.743 5.647-.595 1.53-21.782 22.892-28.786 29.022-7.62 6.698-10.286 9.669-12.189 13.577-1.83 3.743-4.924 4.894-7.976 2.982-3.172-1.974-4.853-5.178-4.158-7.888 1.276-4.825 4.245-8.321 12.5-14.624 2.33-1.811 10.93-8.793 19.144-15.568 8.186-6.763 15.265-12.504 15.714-12.805.536-.332 1.22-.44 2.008-.343z" fill="#353b47" data-color="1"/>
        <path d="M304.43 88.404c3.257-.066 8.392.714 12.81 1.96 5.223 1.476 21.775 7.352 28.523 10.147 6.52 2.706 15.944 7.1 16.758 7.81 1.73 1.524 1.155 4.295-1.079 5.1-1.16.42-1.587.33-5.046-.985-4.836-1.857-13.82-4.851-19.014-6.337-7.032-2.036-10.834-2.847-19.312-4.256-12.549-2.055-18.584-3.965-19.904-6.26-1.034-1.774-.78-3.979.665-5.609.799-.877 3.089-1.53 5.6-1.57z" fill="#353b47" data-color="1"/>
        <path d="M446.846 99.237c.71.332 1.48.92 1.722 1.318.733 1.122.888 3.005.345 4.137-.406.874-.44 1.51-.065 3.002.628 2.649 2.461 16.363 3.567 26.426 1.441 13.266 1.857 16.962 2.671 22.764 1.409 10.265 1.234 15.87-.605 20.137-1.253 2.98-2.548 4.21-5.624 5.32-4.643 1.675-9.736.741-20.928-3.916-3.285-1.378-13.712-5.098-23.178-8.334-9.454-3.205-18.367-6.364-19.806-6.988-2.338-1.027-2.644-1.055-3.24-.528-1.669 1.468-6.24 2.251-8.443 1.418-2.323-.894-3.723-2.502-4.84-5.597-1.073-2.973-1.127-4.305-.282-6.688.857-2.353 2.484-3.841 5.27-4.846 2.942-1.027 4.505-.967 10.524.533 6.525 1.63 15.943 4.917 29.457 10.191 15.102 5.948 21.91 8.55 21.833 8.335-.165-.46-7.065-7.22-10.161-9.982-10.029-8.887-20.084-15.756-32.929-22.449-3.63-1.877-6.826-3.738-7.166-4.135-1.982-2.402-1.218-6.557 1.532-8.208 1.858-1.12 3.302-.845 8.17 1.556 17.226 8.472 34.105 22.162 46.669 37.894 1.353 1.66 1.73 1.974 1.737 1.452.17-8.618-.578-32.596-1.475-46.717-.34-5.49-.53-10.651-.444-11.41.305-2.154 1.44-3.915 3.058-4.706 1.232-.583 1.469-.564 2.631.02z" fill="#353b47" data-color="1"/>
    </g>
</svg>
