<?xml version="1.0" encoding="UTF-8"?>
<svg data-bbox="40.652 49.622 409.979 723.261" xmlns="http://www.w3.org/2000/svg" viewBox="0 0 500 500" data-type="ugc">
    <g>
        <g>
            <g transform="translate(41.57 15.67) scale(1.85013)">
                <path fill="#323e48" d="M37.065 103.008h20.234a8.607 8.607 0 0 0 16.086 0h3.951a3.156 3.156 0 0 0 3.172-2.694 3.079 3.079 0 0 0-3.056-3.464H73.38a8.607 8.607 0 0 0-16.086 0H36.942a3.079 3.079 0 0 0-3.054 3.464 3.156 3.156 0 0 0 3.177 2.694Zm28.278-5.655a2.464 2.464 0 1 1-2.463 2.463 2.466 2.466 0 0 1 2.463-2.463Z"/>
                <path fill="#323e48" d="M37.065 85.356h3.814a8.607 8.607 0 0 0 16.084 0h20.372a3.156 3.156 0 0 0 3.172-2.694 3.08 3.08 0 0 0-3.056-3.466H56.963a8.606 8.606 0 0 0-16.084 0h-3.932a3.08 3.08 0 0 0-3.054 3.466 3.156 3.156 0 0 0 3.172 2.694Zm11.856-5.655a2.463 2.463 0 1 1-2.463 2.463 2.465 2.465 0 0 1 2.463-2.463Z"/>
                <path fill="#323e48" d="M81.147 53.838a3.079 3.079 0 1 1-6.158 0 3.079 3.079 0 0 1 6.158 0z"/>
                <path fill="#323e48" d="M72.663 53.838a3.079 3.079 0 1 1-6.158 0 3.079 3.079 0 0 1 6.158 0z"/>
                <path fill="#323e48" d="M64.179 53.838a3.079 3.079 0 1 1-6.158 0 3.079 3.079 0 0 1 6.158 0z"/>
                <path fill="#323e48" d="M98.165 82.317V49.375a7.184 7.184 0 0 0-7.184-7.184l-60.402.06a7.186 7.186 0 0 0-7.184 7.184v67.326a5.132 5.132 0 0 0 5.133 5.131l44.867.001 19.648-.06a5.13 5.13 0 0 0 5.131-5.131m-6.157-50.29v49.263l-62.454.06V66.471l62.454-.059Zm-62.454-6.097v-10.88c0-.566.459-1.025 1.025-1.026l60.402-.06c.567 0 1.026.459 1.027 1.026v10.879l-62.454.061Z"/>
                <path d="M200.962 18.352c2.648.025 5.141 1.12 6.873 2.851 1.732 1.732 2.826 4.226 2.851 6.874V155.76c-.022 3.22-1.347 6.23-3.453 8.336s-5.116 3.431-8.336 3.452h-25.65a3.785 3.785 0 0 1-1.157-.148c-1.205-.414-2.103-1.449-2.35-2.526-.248-1.076.105-2.389 1.001-3.287a2.715 2.715 0 0 1 1.786-.786h28.436c.744.021 1.322-.26 1.814-.752s.773-1.07.752-1.814v-10.8H6.657v8.735c-.022 1.315.491 2.41 1.357 3.276.866.866 1.961 1.379 3.276 1.357h147.642c1.037.026 2.06.504 2.684 1.212.624.707.97 1.793.867 2.825-.148.873-.621 1.717-1.251 2.251-.629.535-1.531.865-2.416.87h-32.285v20.757h14.485c2.086.022 4.07.888 5.433 2.251 1.363 1.363 2.229 3.347 2.251 5.433v2.874c-.022 2.086-.888 4.07-2.251 5.433-1.363 1.363-3.347 2.229-5.433 2.251H69.174c-2.086-.022-4.071-.887-5.434-2.25-1.363-1.363-2.228-3.348-2.25-5.434v-2.874c.022-2.086.887-4.071 2.25-5.434 1.363-1.363 3.348-2.228 5.434-2.25h14.487v-21.169H11.294c-3.22-.021-6.23-1.346-8.336-3.452s-3.432-5.116-3.454-8.336V28.088c.022-2.652 1.117-5.149 2.85-6.884 1.734-1.734 4.231-2.83 6.883-2.853h192.932l-.012.012Zm-1.217 1.009.01-.01H9.237c-2.448-.021-4.568.952-6.175 2.56C1.454 23.52.482 25.64.504 28.088v127.673c-.021 3.015 1.181 5.649 3.161 7.629 1.98 1.98 4.614 3.181 7.629 3.159h73.367v23.169H69.174c-1.882-.022-3.489.721-4.726 1.958s-1.98 2.844-1.958 4.726v2.874c-.022 1.882.721 3.489 1.958 4.726s2.844 1.98 4.726 1.958h71.842c1.881.021 3.489-.721 4.726-1.958s1.979-2.845 1.958-4.726v-2.874c.021-1.881-.721-3.489-1.958-4.726s-2.845-1.979-4.726-1.958h-15.485v-22.757h33.285c.698.029 1.266-.205 1.769-.632.503-.427.823-.935.908-1.629.125-.804-.128-1.459-.626-2.024-.499-.565-1.119-.899-1.935-.873H11.29c-1.52-.021-2.992-.657-3.984-1.649s-1.628-2.464-1.649-3.984v-9.735h198.872v11.8c-.022.949-.427 1.903-1.045 2.521-.618.618-1.572 1.023-2.521 1.045h-28.436c-.445-.024-.782.125-1.061.473-.758.648-.949 1.516-.752 2.376.198.861.704 1.542 1.67 1.794.282.09.536.122.831.105l25.682-.001c3.015.022 5.649-1.179 7.629-3.159 1.98-1.98 3.182-4.614 3.16-7.629V28.077c.019-2.445-.952-4.561-2.558-6.167-1.606-1.605-3.723-2.577-6.168-2.558ZM142.54 196.402v2.874c-.022.386-.198.831-.447 1.079-.248.249-.693.425-1.079.447H69.582c-.385-.022-.829-.199-1.077-.448-.249-.248-.425-.693-.447-1.078v-2.874c.022-.385.198-.83.447-1.078.248-.249.693-.426 1.078-.448h71.431c.386.022.831.198 1.079.447.249.249.425.693.447 1.079Zm-1.154-.372c-.122-.123-.191-.176-.372-.154H69.583c-.181-.021-.248.032-.371.155-.123.122-.176.19-.154.371v2.874c-.022.181.031.249.154.371.123.123.191.176.372.155h71.43c.181.022.25-.031.372-.154.123-.122.176-.191.154-.372v-2.874c.022-.181-.031-.249-.154-.372Zm-21.013-29.07v22.758H89.814V166.96Zm-29.559 21.758h28.559V167.96H90.814ZM5.657 141.272V28.088c.022-.953.428-1.911 1.049-2.531.62-.621 1.578-1.027 2.531-1.049h153.478l-5.735 5.516H52.174c-.566-.018-1.032.136-1.487.434-.455.298-.787.671-.997 1.196-.466.956-.309 1.865.209 2.663.518.798 1.283 1.312 2.346 1.276h141.61v94.6h-2.46l-.145-.249-11.179-19.299c-.414-.765-1.065-1.137-1.853-1.257-.787-.12-1.518.042-2.14.647-.481.434-.71.942-.793 1.552-.082.61.011 1.173.36 1.719l9.781 16.886h-44.255l-4.914-8.48 22.128-38.19.433.746 9.572 16.523c.413.767 1.064 1.14 1.852 1.26.787.12 1.518-.042 2.14-.649.478-.434.71-.942.793-1.552.083-.61-.01-1.172-.357-1.718l-10.097-17.427c-.784-1.453-2.139-2.362-3.78-2.54-.999-.131-1.913.052-2.778.487-.866.434-1.56 1.061-2.051 1.941l-20.841 35.968-.433-.746-26.185-45.196c-.491-.879-1.184-1.503-2.049-1.938-.865-.434-1.778-.617-2.777-.488-1.642.176-3 1.093-3.784 2.546l-7.822 13.498V49.435c.022-1.882-.721-3.489-1.958-4.726s-2.844-1.98-4.726-1.958H30.579c-1.881-.021-3.489.721-4.726 1.958s-1.979 2.845-1.958 4.726v67.326c-.021 1.315.492 2.409 1.358 3.275.866.866 1.96 1.378 3.275 1.356H68.5l-5.146 8.8h-47.03v-94.6h21.148c.698.029 1.258-.204 1.761-.631.503-.428.822-.932.907-1.625.127-.807-.127-1.464-.625-2.029-.499-.565-1.119-.899-1.935-.873H16.206c-1.315-.022-2.409.491-3.275 1.356-.865.866-1.378 1.96-1.356 3.275v96.062c-.022 1.315.491 2.409 1.356 3.275.866.865 1.96 1.378 3.275 1.356h178.168c1.315.022 2.409-.491 3.275-1.356.865-.866 1.378-1.96 1.356-3.275v-96.47c.022-1.315-.49-2.41-1.356-3.275-.866-.866-1.96-1.379-3.275-1.358h-6.072l5.517-5.516h7.122c.953.022 1.911.429 2.531 1.049.62.62 1.026 1.578 1.048 2.531l.015 113.184ZM203.52 28.088c.022-.748-.261-1.33-.755-1.824s-1.076-.777-1.824-.756h-6.708l-3.517 3.516h3.658c1.519.022 2.991.659 3.982 1.651.992.992 1.628 2.463 1.649 3.982v96.47c-.022 1.519-.658 2.99-1.649 3.982-.992.991-2.463 1.627-3.982 1.649H16.206c-1.519-.022-2.99-.658-3.982-1.649-.991-.992-1.627-2.463-1.649-3.982V35.065c.022-1.519.658-2.99 1.649-3.982.992-.991 2.463-1.627 3.982-1.649H37.58c1.037.026 2.06.504 2.684 1.212.624.707.972 1.782.868 2.814-.147.873-.622 1.728-1.252 2.263-.629.534-1.539.865-2.424.869H17.324v92.6H62.78l3.976-6.8H28.528c-1.519-.021-2.99-.657-3.982-1.649-.992-.991-1.629-2.463-1.651-3.982V49.435c.022-2.086.888-4.07 2.251-5.433 1.363-1.363 3.347-2.229 5.433-2.251h52.958c2.086.022 4.071.887 5.434 2.25 1.363 1.363 2.228 3.348 2.25 5.434v31.082l5.956-10.28c.942-1.623 2.669-2.78 4.529-3.036 1.15-.125 2.359.09 3.347.587.988.496 1.881 1.336 2.468 2.333l25.75 44.446 19.975-34.476a6.124 6.124 0 0 1 2.468-2.333c.989-.497 2.197-.711 3.347-.585 1.859.258 3.59 1.419 4.532 3.042l10.091 17.415c.41.713.586 1.589.482 2.355-.105.766-.514 1.569-1.1 2.146-.834.724-1.993 1.058-2.975.909-.982-.15-1.985-.806-2.565-1.745l-9.141-15.779-20.972 36.196 4.334 7.48h41.945l-8.913-15.384c-.411-.713-.588-1.589-.485-2.355.104-.767.514-1.57 1.1-2.148.834-.722 1.993-1.055 2.975-.906.981.149 1.984.804 2.566 1.742l11.036 19.052h.884v-92.6H52.245c-1.325-.038-2.551-.754-3.185-1.732-.634-.977-.788-2.386-.285-3.611a3.893 3.893 0 0 1 1.364-1.629c.572-.374 1.329-.593 2.045-.597h104.394l3.655-3.516H9.237c-.748-.022-1.33.261-1.824.756-.495.494-.778 1.076-.756 1.824v112.184h196.878ZM85.073 116.235h-56.01V65.971l56.01.001Zm-55.01-49.264v48.264h54.01V66.972Zm-1-17.536c.022-.385.198-.83.447-1.078.248-.249.693-.426 1.078-.448h52.958c.386.022.83.198 1.079.447.249.248.426.694.448 1.079v11.379l-56.01.001Zm55.01 10.379V49.435c.021-.182-.032-.249-.155-.372-.122-.123-.191-.176-.372-.154H30.588c-.181-.021-.248.032-.371.155-.123.122-.176.19-.154.371v10.38Zm1.526 61.579c1.315.022 2.409-.491 3.275-1.356.865-.866 1.378-1.96 1.356-3.275v-7.134l.716.349c.723.353 1.468.52 2.272.512 1.919.046 3.596-.925 4.516-2.61l5.155-8.927c.232-.317.668-.577 1-.577.331 0 .768.26.999.577l3.082 5.342c.993 1.846 2.85 2.884 4.94 2.763 1.8-.069 3.328-1.021 4.191-2.602l1.225-2.113 16.079 27.852H69.937l5.092-8.801Zm-13.928 7.801h61.002l-14.349-24.854-.357.617c-1.035 1.759-2.97 2.955-5.005 3.098-2.357.06-4.679-1.233-5.864-3.271l-3.076-5.332c-.021-.119-.024-.077-.134-.077-.109 0-.113-.042-.133.077l-5.155 8.927c-1.104 1.871-3.215 3.088-5.387 3.11-.914-.004-1.342-.117-1.983-.327v5.6c-.022 1.519-.658 2.99-1.649 3.982-.992.991-2.463 1.627-3.982 1.649h-9.994ZM90.23 94.698l12.137-21.022 13.438 23.275-2.859 4.953-.433-.75-2.85-4.937c-1.055-1.94-2.929-3.142-5.131-3.289-2.465-.221-4.71.977-5.902 3.146l-5.375 9.309-3.025-5.239Zm3.025 8.685 4.509-7.809c1.392-2.363 4.106-3.807 6.843-3.644 2.433.225 4.707 1.681 5.928 3.797l2.411 4.177 1.705-2.953-12.284-21.275-11.137 19.29v4.91Z" fill="none"/>
                <path fill="#323e48" d="M186.7 82.423V49.481a7.184 7.184 0 0 0-7.184-7.184l-60.402.06a7.186 7.186 0 0 0-7.184 7.184v67.326a5.132 5.132 0 0 0 5.133 5.131l44.867.001 19.648-.06a5.13 5.13 0 0 0 5.131-5.131m-6.157-50.29v49.263l-62.454.06V66.577l62.454-.059Zm-62.454-6.097v-10.88c0-.566.459-1.025 1.025-1.026l60.402-.06c.567 0 1.026.459 1.027 1.026V60.36l-62.454.061Z"/>
                <path fill="#323e48" d="M170.205 53.866a3.079 3.079 0 1 1-6.158 0 3.079 3.079 0 0 1 6.158 0z"/>
                <path fill="#323e48" d="M161.742 53.866a3.079 3.079 0 1 1-6.158 0 3.079 3.079 0 0 1 6.158 0z"/>
                <path fill="#323e48" d="M153.279 53.866a3.079 3.079 0 1 1-6.158 0 3.079 3.079 0 0 1 6.158 0z"/>
                <text y="86.527" x="137.74" style="white-space:pre" fill="#333333" font-family="Arial,sans-serif" font-size="4.8"> </text>
                <path d="m122.552 92.323 53.538.165a3.157 3.157 0 0 0 3.172-2.694c.232-1.84-1.188-1.861-3.042-1.86l-53.772-.165c-1.854.001-3.301.021-3.068 1.86a3.156 3.156 0 0 0 3.172 2.694Z" fill="#323e48"/>
                <path d="m122.505 72.015 53.538.165c1.583.025 2.987.731 3.219-.835a3.08 3.08 0 0 0-3.056-3.466l-53.772-.165a3.08 3.08 0 0 0-3.054 3.466c.231 1.566 1.541.86 3.125.835Z" fill="#323e48"/>
                <path d="m174.704 70.718.016 18.502c-.024.727-.463 1.35 1.103 1.454 1.84.106 3.467-.556 3.465-1.407l-.016-18.609c-.002-.852-1.628-1.508-3.467-1.4-1.566.108-1.127.732-1.1 1.46Z" fill="#323e48"/>
                <path d="m119.351 70.58.016 18.503c-.024.727 1.13 1.349 2.695 1.453 1.84.106 1.618-.604 1.616-1.455l-.016-18.609c-.002-.852.22-1.46-1.618-1.352-1.566.108-2.719.733-2.693 1.46Z" fill="#323e48"/>
                <path d="M156.306 71.207c0 2.345-.049 5.945-.115 8.278-.049 1.737-.105 3.472-.105 5.216v1.835c0 .245-.051 2.065.021 1.996.3-.282 2.032-1.309 2.493-1.309 1.28 0 2.11-.727 3.103-1.514 5.663-4.484 1.057-13.617-5.859-13.62" fill="none" stroke="#323e48" stroke-width="4.324"/>
                <path d="M139.184 88.673c.955-2.646 1.539-4.637 2.491-7.095.579-1.495 1.041-3.081 1.663-4.567.574-1.37.971-2.801 1.522-4.232.111-.288.471-1.462.833-1.643.257-.128.183-.245.299.018.273.618.65 1.99.833 2.64.912 3.238 1.893 6.109 2.891 9.394.399 1.312.802 2.794 1.191 4.079.049.162.157.549.808 1.869" fill="none" stroke="#323e48" stroke-width="4.324"/>
            </g>
        </g>
        <g>
            <g>
                <path fill="#323e48" d="M221.622 294.89a5.698 5.698 0 0 0-5.65 6.413 5.837 5.837 0 0 0 5.869 4.985h26.91a5.839 5.839 0 0 0 5.868-4.985 5.702 5.702 0 0 0-5.654-6.412h-27.343Z"/>
                <path d="M413.276 50.289H58.559a17.09 17.09 0 0 0-17.082 17.09V303.59c.002 11.536 9.352 20.886 20.888 20.884h134.813v41.016h-27.727a13.291 13.291 0 0 0-13.292 13.291v5.317a13.291 13.291 0 0 0 13.292 13.292h132.917a13.295 13.295 0 0 0 13.291-13.292v-5.317a13.295 13.295 0 0 0-13.291-13.291h-27.725v-40.253H335.3a5.843 5.843 0 0 0 5.869-4.985 5.698 5.698 0 0 0-5.654-6.409H62.358a9.495 9.495 0 0 1-9.497-9.496V287.26H418.95v20.906a5.676 5.676 0 0 1-5.673 5.673h-52.61a3.534 3.534 0 0 0-2.655 1.186c-3.075 2.862-1.898 7.981 2.119 9.213a5.452 5.452 0 0 0 1.853.233h47.471c11.536.002 20.886-9.348 20.886-20.884V67.358a17.086 17.086 0 0 0-17.067-17.067l.002-.002ZM304.262 378.78v5.317c0 1.05-.85 1.899-1.898 1.899H170.207a1.9 1.9 0 0 1-1.896-1.899v-5.317a1.9 1.9 0 0 1 1.896-1.898h132.157c1.049 0 1.898.85 1.898 1.898Zm-95.7-53.546h54.688v40.255h-54.688v-40.255Zm122.97-255.2H138.007a5.852 5.852 0 0 0-5.45 3.565c-1.797 4.036 1.154 8.585 5.572 8.589h261.072V255.36h-3.094l-323.512-.002V82.187h38.187a5.84 5.84 0 0 0 5.869-4.984 5.698 5.698 0 0 0-5.654-6.41H71.453a9.491 9.491 0 0 0-9.493 9.494v177.727a9.491 9.491 0 0 0 9.493 9.493h329.634a9.491 9.491 0 0 0 9.493-9.493V79.532a9.495 9.495 0 0 0-9.493-9.497h-9.001m21.15-8.355a5.698 5.698 0 0 1 5.697 5.698l.028 208.48h-366.1V67.378a5.698 5.698 0 0 1 5.698-5.698" fill="#323e48"/>
                <path d="M432.64 423.934c4.9.046 9.512 2.072 12.716 5.275 3.204 3.204 5.228 7.818 5.275 12.717v236.23c-.041 5.958-2.492 11.527-6.389 15.423s-9.465 6.348-15.422 6.387h-47.456a7.003 7.003 0 0 1-2.14-.274c-2.23-.766-3.892-2.68-4.349-4.673-.459-1.991.195-4.42 1.852-6.082a5.023 5.023 0 0 1 3.305-1.454h52.61c1.376.039 2.446-.481 3.356-1.391s1.43-1.98 1.391-3.356v-19.982H73.151v16.161c-.041 2.433.908 4.459 2.51 6.061 1.602 1.602 3.628 2.551 6.061 2.51H354.88c1.919.049 3.811.933 4.966 2.243 1.154 1.308 1.794 3.317 1.604 5.227-.274 1.615-1.149 3.176-2.315 4.164-1.163.99-2.832 1.6-4.47 1.61h-59.731v38.403h26.8c3.859.04 7.53 1.643 10.05 4.165 2.523 2.521 4.125 6.192 4.166 10.052v5.317c-.041 3.86-1.643 7.53-4.165 10.052-2.522 2.521-6.192 4.123-10.052 4.164H188.815c-3.86-.04-7.532-1.64-10.054-4.163-2.521-2.521-4.122-6.194-4.162-10.053v-5.317c.04-3.86 1.64-7.532 4.162-10.054 2.522-2.522 6.195-4.122 10.054-4.163h26.803v-39.165H81.73c-5.958-.04-11.527-2.49-15.423-6.387s-6.35-9.465-6.39-15.423V441.947c.04-4.907 2.066-9.527 5.272-12.737 3.209-3.208 7.828-5.235 12.735-5.278h356.95l-.023.022-2.211-.02Zm-2.252 1.867.019-.019H77.924c-4.53-.039-8.452 1.761-11.425 4.736-2.975 2.977-4.773 6.9-4.732 11.429v236.211c-.04 5.579 2.185 10.452 5.848 14.115 3.663 3.663 8.536 5.885 14.115 5.845h135.738v42.865h-28.653c-3.482-.04-6.455 1.334-8.744 3.623s-3.663 5.262-3.622 8.744v5.317c-.04 3.482 1.334 6.455 3.622 8.744s5.262 3.663 8.744 3.622h132.917c3.48.039 6.455-1.334 8.744-3.622s3.661-5.264 3.622-8.744v-5.317c.04-3.48-1.334-6.456-3.622-8.744s-5.264-3.662-8.744-3.623h-28.65V698.88h61.582c1.292.054 2.343-.38 3.273-1.17.931-.79 1.523-1.73 1.68-3.013.232-1.488-.237-2.7-1.158-3.745-.923-1.045-2.07-1.663-3.58-1.615H81.722c-2.812-.039-5.535-1.216-7.37-3.051s-3.013-4.559-3.052-7.37v-18.012h367.94v21.832c-.041 1.755-.79 3.52-1.934 4.664-1.143 1.143-2.908 1.892-4.664 1.933h-52.61c-.824-.044-1.447.231-1.963.875-1.403 1.2-1.756 2.805-1.392 4.396.367 1.593 1.303 2.853 3.09 3.32a4.07 4.07 0 0 0 1.537.194l47.516-.002c5.578.04 10.45-2.182 14.114-5.845 3.663-3.663 5.887-8.536 5.847-14.114v-236.23c.035-4.524-1.762-8.439-4.733-11.41-2.971-2.97-6.888-4.768-11.412-4.733l-2.248.017ZM324.552 753.35v5.317c-.041.714-.367 1.537-.827 1.996-.46.46-1.282.786-1.997.827H189.57c-.712-.04-1.534-.368-1.993-.829-.46-.459-.786-1.282-.827-1.994v-5.317c.041-.713.367-1.536.827-1.995.46-.46 1.283-.788 1.995-.829h132.156c.715.04 1.538.367 1.997.827.46.46.786 1.282.827 1.997Zm-2.135-.689c-.226-.227-.354-.325-.689-.285H189.572c-.335-.038-.459.06-.687.287-.227.226-.325.352-.285.687v5.317c-.04.335.058.46.285.686.228.228.354.326.689.287h132.154c.335.04.463-.057.689-.285.227-.226.325-.353.285-.688v-5.317c.04-.335-.058-.461-.285-.689Zm-38.877-53.783v42.105h-56.538v-42.105h56.538Zm-54.688 40.255h52.838v-38.405h-52.838v38.405ZM71.3 651.352V441.947c.041-1.763.792-3.536 1.941-4.683 1.147-1.149 2.92-1.9 4.683-1.94h283.954l-10.61 10.205H157.363c-1.047-.034-1.91.251-2.751.803-.842.55-1.456 1.241-1.845 2.212-.862 1.769-.572 3.45.387 4.927.958 1.477 2.374 2.428 4.34 2.361h261.997v175.022h-4.551l-.268-.46-20.683-35.706c-.766-1.415-1.97-2.104-3.428-2.326-1.456-.222-2.809.078-3.96 1.197-.89.803-1.313 1.743-1.467 2.872-.151 1.128.02 2.17.666 3.18l18.096 31.241H322.02l-9.092-15.689 40.94-70.656.801 1.38 17.71 30.57c.764 1.419 1.968 2.109 3.426 2.33 1.456.223 2.809-.077 3.96-1.2.884-.803 1.313-1.743 1.466-2.871.154-1.129-.018-2.169-.66-3.179l-18.68-32.242c-1.451-2.688-3.958-4.37-6.994-4.7-1.849-.242-3.54.097-5.14.902-1.602.803-2.886 1.963-3.795 3.59l-38.558 66.546-.801-1.38-48.446-83.618c-.908-1.627-80.109 110.217-80.109 110.217H91.036V455.83h39.126c1.292.054 2.328-.377 3.258-1.167.931-.792 1.521-1.725 1.678-3.007.235-1.493-.235-2.708-1.156-3.754-.923-1.045-2.07-1.663-3.58-1.615H90.817c-2.433-.04-4.457.909-6.059 2.509-1.6 1.602-2.55 3.626-2.509 6.06v177.726c-.04 2.433.909 4.457 2.51 6.06 1.601 1.6 3.625 2.549 6.058 2.508h329.634c2.433.04 4.457-.908 6.06-2.509 1.6-1.602 2.549-3.626 2.508-6.059V454.1c.041-2.433-.906-4.459-2.508-6.059-1.603-1.602-3.627-2.551-6.06-2.512h-11.234l10.208-10.206H432.6c1.763.041 3.536.794 4.683 1.941 1.147 1.147 1.898 2.92 1.939 4.683l.028 209.405H71.3Zm366.073-209.405c.04-1.384-.483-2.46-1.397-3.375s-1.99-1.437-3.375-1.399h-12.41l-6.507 6.505h6.767c2.81.041 5.534 1.22 7.368 3.055 1.835 1.835 3.012 4.557 3.05 7.367v178.482c-.04 2.81-1.217 5.532-3.05 7.368-1.836 1.833-4.557 3.01-7.368 3.05H90.817c-2.81-.04-5.531-1.217-7.367-3.05-1.833-1.836-3.01-4.557-3.05-7.368V454.855c.04-2.81 1.217-5.532 3.05-7.367 1.836-1.834 4.557-3.01 7.367-3.051h39.545c1.919.048 3.811.932 4.966 2.242 1.154 1.308 1.798 3.297 1.606 5.207-.272 1.615-1.151 3.197-2.317 4.186-1.163.988-2.847 1.6-4.484 1.608H92.886v171.322h84.1s-63.436-161.736-59.577-161.777h97.98c3.859.04 37.979 47.252 39.807 48.172 1.828.918 3.48 2.472 4.566 4.316l47.64 82.231 36.957-63.785a11.33 11.33 0 0 1 4.566-4.316c1.83-.92 4.065-1.316 6.193-1.083 3.44.478 6.642 2.626 8.385 5.628l18.67 32.22c.758 1.32 1.083 2.94.891 4.358-.194 1.417-.951 2.902-2.035 3.97-1.543 1.34-3.688 1.957-5.504 1.682-1.817-.278-3.673-1.492-4.746-3.229l-16.912-29.193-38.8 66.967 8.018 13.84h77.603l-16.49-28.463c-.76-1.32-1.088-2.94-.897-4.357.192-1.42.95-2.905 2.035-3.974 1.543-1.336 3.687-1.952 5.504-1.676 1.815.275 3.67 1.487 4.747 3.222l20.419 35.25h1.635V457.681H157.494c-2.451-.07-4.72-1.395-5.892-3.204-1.173-1.808-1.458-4.415-.528-6.681a7.203 7.203 0 0 1 2.524-3.014c1.058-.692 2.459-1.097 3.783-1.105h193.143l6.762-6.505H77.924c-1.384-.04-2.46.483-3.375 1.4-.916.913-1.44 1.99-1.398 3.374v207.555H437.4l-.028-207.555Zm-247.146 188.91s64.236-58.39 64.664-57.803l5.702 9.884c1.837 3.415 5.273 5.336 9.14 5.112 3.33-.128 6.157-1.89 7.753-4.814l2.267-3.91 29.748 51.53H190.227Zm3.208-1.851h112.862l-26.548-45.983-.66 1.141c-1.915 3.255-5.495 5.468-9.26 5.732-4.361.111-8.657-2.281-10.85-6.052l-65.544 45.162Zm70.29-61.012c-1.952-3.589 11.364 1.358 11.364 1.358l-5.29 9.164-.801-1.388-5.273-9.134Zm9.228 1.358s-9.874-6.18-7.615-2.264l4.461 7.728 3.154-5.464Z" fill="none"/>
            </g>
        </g>
        <path fill="#d8d8d8" stroke-width="9" stroke="#323e48" d="m301.636 169.522 16.171-.699"/>
    </g>
</svg>
