<?xml version="1.0" encoding="UTF-8"?>
<svg data-bbox="67.792 90.428 604.609 311.118" xmlns="http://www.w3.org/2000/svg" viewBox="0 0 500 500" data-type="ugc">
    <g>
        <g>
            <g>
                <path fill="#323e48" d="M244.235 309.49a4.858 4.858 0 0 0-4.816 5.467 4.976 4.976 0 0 0 5.002 4.249h22.94a4.978 4.978 0 0 0 5.004-4.25 4.86 4.86 0 0 0-4.82-5.466h-23.31Z"/>
                <path d="M285.317 374.352h-87.174c-6.083 0-11.015 5.073-11.015 11.331v4.533c0 6.258 4.932 11.33 11.015 11.33H308.29c6.083-.001 11.014-5.073 11.015-11.33v-4.533c-.001-6.257-4.932-11.329-11.015-11.33h-22.973Zm24.544 11.331v4.533c0 .894-.703 1.618-1.574 1.618H198.771a1.598 1.598 0 0 1-1.573-1.618v-4.533c0-.893.704-1.617 1.573-1.618h109.516c.87 0 1.574.724 1.574 1.618Zm-79.306-11.33h45.319-45.32Z" fill="#323e48"/>
                <path d="M657.064 104.008c4.177.04 8.109 1.767 10.84 4.497 2.732 2.731 4.458 6.665 4.497 10.841v201.382c-.035 5.079-2.124 9.826-5.446 13.148s-8.069 5.411-13.148 5.444h-40.455a5.97 5.97 0 0 1-1.825-.233c-1.9-.653-3.316-2.286-3.706-3.984-.391-1.697.166-3.768 1.579-5.185a4.282 4.282 0 0 1 2.817-1.24h44.849c1.173.034 2.085-.41 2.861-1.185s1.22-1.688 1.186-2.861v-17.034H350.607v13.777c-.035 2.074.774 3.8 2.14 5.167 1.366 1.365 3.093 2.175 5.167 2.14h232.86c1.636.04 3.25.795 4.234 1.911s1.53 2.828 1.367 4.456c-.233 1.377-.98 2.708-1.973 3.55-.992.844-2.414 1.365-3.81 1.372h-50.92v32.738h22.846c3.29.035 6.419 1.401 8.568 3.55 2.15 2.15 3.516 5.28 3.55 8.57v4.533c-.034 3.29-1.4 6.419-3.55 8.568-2.15 2.15-5.278 3.516-8.568 3.55h-113.31c-3.29-.034-6.42-1.398-8.57-3.548-2.15-2.15-3.514-5.28-3.549-8.57v-4.533c.035-3.29 1.4-6.421 3.549-8.57 2.15-2.15 5.28-3.515 8.57-3.55h22.85v-33.387H357.92c-5.079-.033-9.826-2.123-13.148-5.445s-5.413-8.069-5.447-13.147V119.364c.034-4.183 1.762-8.121 4.495-10.858 2.735-2.735 6.673-4.463 10.856-4.5h304.292l-.019.02-1.885-.018Zm-1.92 1.592.017-.016H354.676c-3.861-.033-7.205 1.501-9.74 4.037-2.536 2.538-4.069 5.882-4.034 9.743V320.73c-.033 4.755 1.863 8.91 4.986 12.032 3.122 3.123 7.277 5.017 12.032 4.982h115.714v36.543h-24.426c-2.968-.035-5.503 1.137-7.454 3.088s-3.122 4.485-3.088 7.454v4.533c-.034 2.968 1.137 5.502 3.088 7.453s4.486 3.123 7.454 3.089h113.31c2.966.033 5.502-1.138 7.453-3.089s3.122-4.487 3.089-7.453v-4.533c.033-2.967-1.138-5.503-3.089-7.454s-4.487-3.121-7.453-3.088h-24.423v-35.893h52.497c1.1.046 1.996-.323 2.79-.996.793-.674 1.298-1.475 1.432-2.57.197-1.268-.202-2.3-.987-3.192-.787-.891-1.765-1.418-3.052-1.377H357.914c-2.398-.033-4.72-1.036-6.284-2.6s-2.568-3.887-2.6-6.284V306.02h313.66v18.61c-.034 1.497-.673 3.002-1.648 3.977-.975.974-2.48 1.613-3.976 1.648h-44.85c-.701-.038-1.233.197-1.673.746-1.195 1.022-1.496 2.391-1.186 3.747.312 1.358 1.11 2.432 2.634 2.83.445.142.846.192 1.31.165l40.506-.001c4.756.035 8.91-1.86 12.033-4.982 3.123-3.123 5.019-7.278 4.984-12.033V119.346c.03-3.856-1.502-7.193-4.035-9.726-2.533-2.532-5.872-4.065-9.728-4.035l-1.916.015Zm-90.223 279.229v4.533c-.035.608-.312 1.31-.705 1.701-.391.393-1.093.67-1.702.705H449.852c-.607-.034-1.308-.314-1.699-.706-.393-.391-.67-1.093-.705-1.7v-4.533c.035-.608.312-1.31.705-1.7.391-.393 1.093-.672 1.7-.707h112.661c.61.035 1.311.312 1.702.705.393.393.67 1.093.705 1.702Zm-1.82-.587c-.192-.194-.301-.278-.587-.243h-112.66c-.286-.033-.392.05-.586.244-.194.193-.277.3-.243.586v4.533c-.034.285.05.392.243.585.194.194.302.277.587.244h112.66c.285.035.394-.049.586-.243.194-.192.278-.301.243-.586v-4.533c.035-.286-.049-.393-.243-.587Zm-33.142-45.85v35.895h-48.197v-35.894h48.197Zm-46.62 34.317h45.043v-32.74H483.34v32.74Zm-134.31-74.831V119.364c.035-1.503.675-3.014 1.655-3.992.978-.98 2.489-1.62 3.992-1.655H596.74l-9.045 8.7h-165.3c-.893-.028-1.628.215-2.345.685-.718.47-1.242 1.058-1.573 1.886-.735 1.508-.487 2.942.33 4.2.817 1.259 2.023 2.07 3.7 2.013h223.347v149.203h-3.88l-.228-.393-17.632-30.438c-.653-1.207-1.68-1.794-2.922-1.983-1.242-.19-2.395.066-3.376 1.02-.758.685-1.12 1.486-1.25 2.448-.13.963.017 1.85.567 2.712l15.427 26.632h-69.799l-7.75-13.374 34.9-60.234.683 1.177 15.097 26.06c.651 1.21 1.678 1.798 2.92 1.987 1.242.19 2.395-.066 3.376-1.023.754-.685 1.12-1.486 1.25-2.448.132-.962-.015-1.849-.562-2.71l-15.925-27.486c-1.237-2.291-3.374-3.725-5.962-4.006-1.576-.206-3.017.082-4.382.768-1.365.685-2.46 1.674-3.234 3.062l-32.87 56.728-.684-1.176-41.299-71.283c-.774-1.387-68.291 93.958-68.291 93.958h-74.176V131.2h33.355c1.1.046 1.984-.322 2.777-.995.794-.675 1.297-1.47 1.43-2.563.201-1.273-.2-2.31-.985-3.2-.787-.891-1.765-1.418-3.052-1.377h-33.71c-2.075-.035-3.8.774-5.166 2.139-1.364 1.365-2.174 3.09-2.139 5.165v151.509c-.035 2.074.775 3.8 2.139 5.165 1.366 1.365 3.091 2.174 5.165 2.139h281.007c2.074.035 3.8-.774 5.165-2.139 1.364-1.366 2.173-3.091 2.139-5.165V129.724c.034-2.074-.773-3.8-2.139-5.165-1.366-1.366-3.091-2.175-5.165-2.142h-9.577l8.701-8.7h11.233c1.503.035 3.014.677 3.992 1.655.978.978 1.618 2.489 1.653 3.992l.024 178.514H349.03ZM661.1 119.364c.035-1.18-.412-2.098-1.191-2.877s-1.697-1.225-2.877-1.192h-10.58l-5.547 5.545h5.77c2.396.035 4.717 1.04 6.28 2.604 1.565 1.565 2.568 3.885 2.601 6.28v152.153c-.035 2.396-1.038 4.716-2.6 6.28-1.565 1.563-3.885 2.566-6.281 2.601H365.667c-2.396-.035-4.716-1.038-6.28-2.6-1.563-1.565-2.566-3.885-2.601-6.281v-151.51c.035-2.395 1.038-4.715 2.6-6.28 1.565-1.562 3.885-2.566 6.281-2.6h33.711c1.636.04 3.25.795 4.233 1.911.985 1.115 1.534 2.81 1.37 4.439-.232 1.376-.982 2.725-1.975 3.569-.992.842-2.427 1.364-3.823 1.37H367.43v146.049h71.693s-54.078-137.877-50.788-137.912h83.526c3.29.035 32.376 40.282 33.935 41.066 1.558.782 2.966 2.107 3.892 3.68l40.613 70.1 31.505-54.376a9.659 9.659 0 0 1 3.892-3.68c1.56-.784 3.465-1.121 5.28-.922 2.931.407 5.661 2.238 7.147 4.798l15.915 27.466c.647 1.125.925 2.507.76 3.715-.165 1.208-.81 2.474-1.734 3.384-1.316 1.142-3.144 1.67-4.692 1.434-1.55-.236-3.131-1.271-4.046-2.752l-14.417-24.887-33.077 57.089 6.835 11.797h66.156l-14.057-24.264c-.649-1.124-.928-2.506-.765-3.714.164-1.21.81-2.476 1.735-3.388 1.315-1.138 3.143-1.664 4.692-1.429 1.547.235 3.129 1.268 4.047 2.748l17.406 30.049h1.394v-146.05h-221.77c-2.09-.059-4.024-1.188-5.023-2.73-1-1.542-1.243-3.764-.45-5.696a6.14 6.14 0 0 1 2.151-2.57c.902-.59 2.096-.935 3.226-.94h164.65l5.765-5.546H354.676c-1.18-.035-2.098.411-2.877 1.192-.78.78-1.227 1.697-1.192 2.877V296.3h310.515l-.023-176.936ZM450.412 280.405s54.76-49.774 55.124-49.274l4.861 8.425c1.567 2.911 4.495 4.549 7.792 4.358 2.839-.11 5.249-1.61 6.61-4.104l1.932-3.333 25.36 43.928H450.41Zm2.735-1.577h96.212l-22.631-39.2-.563.974c-1.633 2.774-4.685 4.66-7.894 4.886-3.718.094-7.38-1.945-9.249-5.16l-55.875 38.5Zm59.92-52.011c-1.663-3.06 9.688 1.158 9.688 1.158l-4.51 7.811-.682-1.183-4.495-7.786Zm7.868 1.158s-8.418-5.268-6.492-1.931l3.803 6.588 2.689-4.657Z" fill="none"/>
                <path fill="#323e48" d="M127.336 355.751c-2.277.002-4.037 2.106-3.752 4.484.284 2.028 1.951 3.519 3.898 3.486h17.87c1.944.033 3.611-1.458 3.895-3.486.284-2.378-1.476-4.482-3.754-4.484h-18.157Z"/>
                <path fill="#323e48" d="M392.737 359.298a5.58 5.58 0 1 1-11.16 0 5.58 5.58 0 0 1 11.16 0z"/>
            </g>
        </g>
        <path d="M432.598 375.117c-1.541 5.883-5.298 9.79-10.784 12.185-.338.148-68.102-.058-68.102-.058s-2.269-.47-3.267-1.056c-5.883-3.44-8.998-8.588-9.03-15.389-.044-8.99.113-17.981.215-26.973.012-1.085-.305-1.554-1.474-1.552-18 .026-36 .024-54.001.002-1.09 0-1.551.317-1.548 1.48a4596.86 4596.86 0 0 1-.004 31.284c-.004 1.293-57.302 1.17-57.311-.33-.06-10.171-.065-20.343.004-30.514.01-1.626-.586-1.95-2.056-1.934-6.077.068-12.156.1-18.232-.015-1.81-.035-2.142.62-2.13 2.244.067 8.993.04 17.986.03 26.98-.007 6.732-4.627 13.301-10.914 15.625-.514.19-115.406.068-115.991-.229-5.952-3.016-9.747-7.539-10.203-14.448-.024-.372.012-3.262.013-3.95.029-10.862.02-21.724.02-32.587 0-42.331-.015-84.662.02-126.994.005-4.746 2.307-8.522 5.765-11.588 4.044-3.587 8.971-4.472 14.187-4.387 2.748.045 2.75.007 2.75-2.66 0-26.193 0-52.386.002-78.58 0-.681-.048-1.376.057-2.044 1.5-9.515 8.277-16.836 17.673-19.17.337-.084 295.675.014 296.12.14 10.667 3.007 17.295 11.778 17.295 22.91.001 41.38.009 82.759-.03 124.137-.002 1.55.378 2.453 1.855 3.17 4.46 2.165 7.314 5.788 8.902 10.455m-238.94-57.03c7.228 2.92 11.216 8.812 11.217 16.573 0 16.388-.002 32.777.005 49.166 0 .739.075 1.479.027 2.557v22.26H341.56c0-7.63 0-15.132.054-22.97l.003-5.584c.007-9.573 7.548-17.123 17.1-17.136 9.492-.013 18.984-.044 28.806-.012h22.572v-1.855c0-40.846 0-81.69-.002-122.536 0-.496-.026-.991-.037-1.488-.17-7.47-6.335-11.647-12.504-11.64-94.477.12-188.955.083-283.432.083-7.188 0-12.016 4.82-12.016 12.006-.003 25.823 0 51.646 0 77.469v2.018c7.717 0 15.214 0 23.054.065 17.917.005 35.836.012 53.753.012.99 0 1.98-.052 3.305-.016 3.694.28 7.389.56 11.273 1.028M79.318 233.71c0 45.438-.002 90.877 0 136.315 0 4.379 2.138 6.536 6.46 6.536h101.12c4.133 0 6.4-2.278 6.402-6.458.003-52.95.003-105.9-.001-158.85 0-4.185-2.255-6.469-6.424-6.47-33.707-.008-67.413-.007-101.12 0-4.234 0-6.43 2.196-6.435 6.393-.009 7.387-.003 14.774-.003 22.534M396.56 376.56c6.205 0 12.411.004 18.617 0 3.96-.004 6.211-2.24 6.212-6.218.006-37.856.006-75.711 0-113.567-.002-3.855-2.283-6.115-6.126-6.116-18.68-.004-37.359-.004-56.039 0-3.84.001-6.117 2.263-6.118 6.123-.007 37.856-.007 75.711-.001 113.567.001 3.976 2.254 6.21 6.22 6.21 12.287.003 24.575.001 37.235.001m-181.033-80.086h-10.665v34.147h136.631v-34.147H215.527m23.464 72.45v7.53h34.032v-34.055h-34.032v26.526Z" fill="#323e48"/>
    </g>
</svg>
