<?xml version="1.0" encoding="UTF-8"?>
<svg data-bbox="66.08 41.631 373.372 437.13" xmlns="http://www.w3.org/2000/svg" viewBox="0 0 500 500" data-type="ugc">
    <g>
        <path d="M376.856 325.251c.665.574-10.566-6.778-9.85-6.228 9.964 7.651 23.758 12.808 35.02 17.093 1.98.754 8.654 2.577 12.349 4.44 1.202.605-10.995-4.327-10.688-3.748" stroke-width="7" fill="#353b47" stroke="#353b47"/>
        <path d="M403.948 262.529c.685.358-10.206-3.777-9.487-3.447 9.993 4.593 22.234 6.5 32.25 8.12 1.759.285 7.485.66 10.904 1.564 1.113.295-9.82-1.698-9.41-1.275" stroke-width="7" fill="#353b47" stroke="#353b47"/>
        <path d="M406.743 194.95c.773-.008-10.78 1.486-9.99 1.438 10.977-.667 22.669-4.762 32.263-8.061 1.686-.58 6.91-2.952 10.353-3.769 1.12-.265-9.459 3.138-8.899 3.318" stroke-width="7" fill="#353b47" stroke="#353b47"/>
        <path d="M393.612 106.003c-.676.23 9.488-5.21 8.796-4.917-9.621 4.076-20.03 13.334-28.567 20.84-1.5 1.319-6.177 6.244-9.221 8.403-.991.703 8.41-7.234 7.93-7.335" stroke-width="7" fill="#353b47" stroke="#353b47"/>
        <path d="M144.885 335.686c-.723.573 11.498-6.778 10.718-6.229-10.842 7.652-25.852 12.809-38.106 17.094-2.154.753-9.417 2.576-13.437 4.438-1.308.606 11.964-4.325 11.63-3.747" stroke-width="7" fill="#353b47" stroke="#353b47"/>
        <path d="M104.885 266.958c-.745.358 11.106-3.777 10.324-3.447-10.873 4.593-24.193 6.5-35.091 8.12-1.915.285-8.146.659-11.867 1.564-1.21.295 10.685-1.697 10.24-1.275" stroke-width="7" fill="#353b47" stroke="#353b47"/>
        <path d="M101.67 205.865c-.84-.008 11.73 1.487 10.872 1.438-11.945-.667-24.667-4.762-35.107-8.061-1.835-.58-7.52-2.952-11.264-3.768-1.22-.265 10.291 3.138 9.682 3.317" stroke-width="7" fill="#353b47" stroke="#353b47"/>
        <path d="M104.174 113.922c.736.23-10.324-5.21-9.572-4.917 10.47 4.076 21.796 13.334 31.085 20.84 1.632 1.318 6.721 6.244 10.034 8.403 1.08.703-9.152-7.234-8.629-7.336" stroke-width="7" fill="#353b47" stroke="#353b47"/>
        <path d="M178.662 52.216c.54.55-6.634-9.473-6.109-8.858 7.299 8.542 12.903 22.054 17.54 33.06.815 1.933 2.971 8.679 4.87 12.148.618 1.13-4.645-10.702-4.136-10.544" stroke-width="7" fill="#353b47" stroke="#353b47"/>
        <path d="M292.29 74.366c.439-.636-4.99 9.671-4.575 8.998 5.774-9.36 9.156-21.278 11.981-31.023.497-1.712 1.564-7.35 2.878-10.634.429-1.068-2.879 9.54-2.41 9.186" stroke-width="7" fill="#353b47" stroke="#353b47"/>
        <path d="m328.265 144.002.309.309-.31-.31m10.176-.338c-1.848 1.849-4.369 3.476-6.01 5.535-.565.708-1.383 1.878-1.037 2.884.772 2.254 3.828 4.812 5.298 6.72 3.619 4.693 7.165 9.31 10.027 14.501 9.575 17.375 13.714 37.655 12.363 57.369-.833 12.16-4.047 24.046-8.96 35.162-4.63 10.473-11.063 20.47-19.076 28.685-8.286 8.496-17.931 15.008-28.532 20.476-39.248 20.245-87.053 14.674-119.521-15.233-1.622 1.23-7.092 5.26-7.034 7.43.03 1.17 1.636 2.11 2.407 2.8 2.656 2.372 5.45 4.588 8.327 6.688 11.826 8.625 26.019 16.783 40.406 19.809 4.348.915 16.037-.45 16.347 5.221l10.903.617c.029-1.925 1.437-2.58 3.312-3.074 3.962-1.04 7.904-.514 12.026-1.05 17.453-2.275 35.673-8.299 50.318-18.106 44.536-29.82 61.134-88.21 42.512-138.158-3.78-10.146-8.699-20.148-15.2-28.803-2.444-3.253-5.53-7.114-8.876-9.473Z" fill="#4fa96c"/>
        <path d="M325.797 157.099c-1.858.422-3.933 3.482-5.242 4.793-4.24 4.239-13.9 13.482-13.9 13.482s-.387.485-1.91.585c-1.223.08-2.43-1.108-2.43-1.108l-4.862 4.717s1.693 3.16.155 5.148c-4.934 6.379-11.754 11.875-17.458 17.58l-59.837 59.838-23.75 23.749-6.032 5.564c-.717.718-2.497 1.981-2.605 3.076-.155 1.597 3.24 3.678 4.312 4.538 4.292 3.44 9.112 6.3 13.886 9.029 20.671 11.814 45.227 15.314 68.474 10.657 45.624-9.141 77.725-50.793 77.725-96.711 0-18.185-5.627-36.147-15.244-51.508-2.31-3.689-4.955-7.126-7.711-10.488-.76-.925-2.125-3.27-3.571-2.941Z" fill="#e32847"/>
        <path d="M184.79 297.072s5.223-14.572 8.496-11.213c25.396 26.064 70.456 33.24 100.243 28.669 0 0-56.021 25.843-108.739-17.456Z" fill="#c2253f"/>
        <path d="M183.158 297.56c-2.42-3.652-9.583 9.001-9.583 9.001l15.1 16.443 54.371 18.753 11.239.65 41.37-5.768s11.705-9.153 7.997-8.218c-10.78 2.718-95.456 6.937-120.494-30.86Z" fill="#499861"/>
        <path d="M203.04 306.17c-5.385-3.36-15.114-11.65-15.114-11.65 3.652-2.573 6.714-6.405 9.872-9.563l18.813-18.814 57.678-57.678 20.64-20.286c1.917-1.917 6.226-6.085 2.459-8.662-3.521-2.407-.83-3.194-9.22 4.89l-21.899 21.9-73.716 73.715-18.815 18.815c-2.028 2.028-6.38 4.97-6.707 8.019-.217 2.027 1.384 3.395 2.703 4.654a149.292 149.292 0 0 0 8.322 7.35c13.054 10.74 28.783 18.187 45.032 22.588 4.953 1.34 10.03 2.231 15.114 2.906.89.118 18.888 1.856 22.721.674 5.436-1.678-3.062-6.378-4.088-6.198-.306.052-.144-.06-.511-.028-7.294.623-26.681-2.724-31.693-3.994-13.814-3.498-26.701-10.036-38.246-18.301-2.799-2.003-5.41-4.243-8.02-6.484-.779-.667-2.45-1.69-2.45-2.858 0-2.35 7.077-7.289 7.077-7.289 8.737 10.1 23.05 17.109 35.47 21.5 48.656 17.2 104.35-3.145 128.686-49.374 7.025-13.349 10.906-28.17 11.933-43.18 1.298-18.971-3.387-38.846-12.406-55.519-2.856-5.284-6.157-10.42-9.912-15.113-1.27-1.588-4.958-4.466-5.22-6.477-.126-.983 1.052-1.857 1.657-2.468 1.777-1.792 3.787-3.485 5.244-5.55 7.293 7.313 13.536 16.122 18.278 25.29 24.551 47.48 14.057 105.755-26.298 141.216-16.778 14.743-37.76 24.234-59.837 27.415-4.52.652-14.187 1.18-14.187 1.18s-3.216 2.742-2.267 4.75c.84 1.778 2.707 1.865 4.426 1.865 3.887 0 7.86-.51 11.72-.974 16.82-2.018 33.363-7.766 47.807-16.627 47.969-29.418 70.59-89.555 52.743-143.094-4.69-14.076-11.736-27.4-21.205-38.863-2.34-2.834-6.83-10.133-10.872-10.152-3.387-.017-6.463 4.586-8.636 6.76l-21.283 21.28c-2.201 2.202-15.15 14.684-19.666 20.078-1.677 2.002 4.459 5.784 5.758 4.444 4.862-5.018 13.395-13.841 14.217-14.652 4.243-4.186 8.432-8.43 12.646-12.645.93-.93 3.121-4.041 4.622-3.637 1.104.297 2.015 1.884 2.705 2.711 2.161 2.595 4.237 5.226 6.138 8.02 7.947 11.678 13.363 24.923 15.7 38.863 7.558 45.03-18.186 89.728-60.317 106.983-13.092 5.36-27.56 7.433-41.64 6.818-16.073-.703-32.34-6.065-45.956-14.555Z" fill="#353b47"/>
        <path d="M311.609 199.36c-2.547.285-9.633 3.03-9.392 6.315.202 2.778 7.399 3.259 9.392 3.045 6.984-.748 7.455-10.195 0-9.36Z" fill="#353b47"/>
        <path d="M310.067 229.582c-1.585.28-5.868.931-6.15 2.955-.166 1.188 1.346 2.279 2.141 2.926 2.57 2.094 5.851 3.74 9.253 3.127 3.48-.627 4.913-4.692 2.426-7.268-1.915-1.984-5.087-2.198-7.67-1.74Z" fill="#353b47"/>
        <path d="M288.576 256.898c-1.346.91-.109 3.744.27 4.927 1.154 3.61 5.328 9.41 9.777 6.474 5.912-3.902-2.167-9.87-5.828-11.04-1.165-.373-3.07-1.138-4.219-.361Z" fill="#353b47"/>
        <path d="M236.047 271.092c-3.39 1.596-5.674 7.256-5.295 10.78.305 2.85 3.059 5.19 5.908 3.834 3.944-1.88 3.742-7.044 2.799-10.618-.385-1.468-1.185-5.045-3.412-3.996Z" fill="#353b47"/>
        <path d="M263.966 272.017c-3.021 1.81-3.108 9.674-1.594 12.323 1.22 2.13 3.748 3.48 6.053 2.131 4.29-2.513 2.002-8.26-.107-11.383-.739-1.095-2.703-4.058-4.352-3.071Z" fill="#353b47"/>
        <path d="M143.923 279.898c-3.63-7.257-7.199-14.31-8.715-22.232-.692-3.614-2.855-6.819-3.491-10.538-1.567-9.16-1.237-18.343-.357-27.505 1.284-13.371 4.129-26.44 7.647-39.412 4.522-16.671 13.44-30.544 25.14-43.018 12.977-13.832 27.765-24.844 45.625-31.5 7.883-2.937 16.129-4.298 24.415-5.351 8.119-1.031 16.3-1.343 24.481-1.605 22.547-.724 42.911 5.762 61.615 18.143 8.684 5.749 17.072 11.816 24.308 19.36 2.994 3.123 5.543 6.547 7.628 10.362 3.238 5.924 7.203 11.408 10.46 17.339 6.753 12.299 10.304 25.524 12.68 39.263 4.855 28.05-.86 54.128-13.723 79.034-6.082 11.773-14.098 22.182-22.442 32.409-9.289 11.385-18.41 23.012-25.575 35.828-7.298 13.054-12.798 26.983-13.887 42.217-.036.504-.194 1.01-.166 1.507.62 11.195-2.035 22.106-2.88 33.174-.662 8.653-.662 17.364-2.41 25.927-.914 4.471-3.221 7.907-6.873 10.528-5.343 3.838-11.088 7.082-16.203 11.279-2.232 1.831-5.31 2.059-8.116 2.643-10.551 2.198-20.47.9-29.872-4.727-3.524-2.11-7.201-4.006-10.779-6.063-3.922-2.255-6.152-5.562-7.725-9.613-3.038-7.829-4.128-16.01-4.277-24.304-.178-9.96-.127-19.928.054-29.888.271-14.869-3.562-28.693-10.238-41.826-9.235-18.165-21.011-34.594-34.207-50.065-8.29-9.72-15.626-20.138-22.117-31.366m57.618 72.918c4.515 8.317 8.81 16.743 11.53 25.846 1.989 6.656 1.875 6.69 8.915 7.325.085.008.169.01.253.017 17.92 1.528 35.868 2.207 53.85 1.683 3.792-.11 7.575-.498 11.367-.617 6.19-.193 6.191-.144 7.728-6.203.042-.164.104-.323.137-.488 2.431-11.796 7.024-22.782 13.49-32.845 10.3-16.031 20.364-32.264 33.202-46.499 1.128-1.25 2.146-2.608 3.132-3.976 12.578-17.452 20.561-36.925 25.277-57.808 2.131-9.438 3.172-18.98 1.49-28.612-.736-4.21-2.81-8.085-3.014-12.485-.24-5.164-1.464-10.19-3.364-15.001-5.711-14.455-13.028-27.929-23.332-39.75-12.167-13.962-26.208-25.081-43.565-32.044-10.48-4.203-21.144-6.893-32.391-7.2-10.636-.291-21.278-.215-31.813 1.496-11.774 1.911-23.308 4.821-34.071 10.076-7.163 3.497-13.42 8.434-19.376 13.707-9.19 8.133-17.991 16.687-24.51 27.163-6.324 10.158-10.331 21.407-13.982 32.75-3.335 10.363-6.324 20.814-7.01 31.77-.309 4.926.623 9.743 1.12 14.603 1.01 9.861 3.028 19.468 6.733 28.693 6.235 15.525 15.29 29.345 26.155 41.92 12.315 14.253 22.956 29.588 32.049 46.48m39.95 54.58c-2.977.59-5.98 1.073-8.923 1.796-4.91 1.205-9.853 2.397-14.257 5.02-2.496 1.487-3.374 3.891-2.518 6.25.777 2.14 3.053 3.372 5.821 2.976 6.007-.86 12.016-1.715 18-2.72 13.548-2.272 27.078-4.655 40.624-6.945 2.82-.477 5.717-.56 8.503-1.167 3.948-.861 5.882-4.451 5.074-8.868-.525-2.877-2.379-3.693-6.884-3.034a14131.92 14131.92 0 0 0-45.44 6.692m2.11 45.123c1.868-.514 3.448-1.994 5.436-1.977 7.502.066 14.706-1.831 21.988-3.2 4.808-.903 9.624-1.716 14.475-2.354 3.37-.444 5.78-3.817 5.23-6.93-.657-3.706-2.445-4.882-6.586-4.339-1.337.176-2.685.284-4.013.507-12.552 2.11-25.106 4.205-37.648 6.374-7.065 1.222-14.116 2.55-20.698 5.574-1.767.811-3.486 1.716-4.688 3.344-1.142 1.55-1.444 3.28-.77 5.032.7 1.823 2.467 1.6 3.935 1.505 7.744-.5 15.478-1.12 23.338-3.536m5.458-17.41c13.108-2.349 26.211-4.725 39.33-7.013 2.023-.353 2.94-1.3 3.006-3.33.148-4.632-1.052-6-5.68-5.951-5.324.058-10.577.93-15.825 1.718a2967.774 2967.774 0 0 0-31.466 4.917c-5.65.908-11.383 1.517-16.59 4.216-1.84.954-3.452 2.152-4.493 3.955-.938 1.627-1.043 3.466-.252 5.107.764 1.583 2.48 1.116 3.873 1.119a17.38 17.38 0 0 0 3.022-.254c8.218-1.456 16.43-2.943 25.075-4.485m26.538-37.859c4.559-.843 9.287-.858 14.382-2.683-2.518-.92-4.419-1.024-6.33-1.149-10.03-.65-20.075-.506-30.113-.58-11.47-.087-22.942-.068-34.412-.084-1.342-.002-2.682-.118-3.35 1.564-1.477 3.723-1.202 7.258.893 10.642.886 1.43 2.157 1.975 3.888 1.678 18.198-3.126 36.401-6.214 55.042-9.388m12.55 53.762c-.733-1.178-1.93-.878-2.978-.848-4.732.135-9.37 1.036-14.003 1.9-11.338 2.118-22.514 5.073-34.013 6.377-3.057.346-6.213.598-9.141 1.859 1.099.382 2.17.59 3.249.653 15.757.907 31.508.763 47.25-.348 5.83-.41 8.888-3.347 9.637-9.593m-43.935 18.318c-1.687-3.456-7.135-4.829-11.67-2.715 3.056 2.667 6.512 4.191 10.232 5.092 1.397.338 1.56-.887 1.438-2.377m27.187-.7c.92-.298 1.452-.885 1.144-1.878-.277-.893-1.07-.947-1.852-.883-2.403.199-5.116 3.692-4.756 6.401 1.894-1.008 2.971-3.097 5.464-3.64Z" fill="#353b47"/>
        <path d="M184.828 288.877c-5.33-7.827-16.944-23-21.07-31.352-1.011-2.048-1.953-4.149-2.175-6.443-.214-2.214-2.01-3.636-2.544-5.73-1.154-4.538-1.55-9.175-1.72-13.786-.426-11.466-.987-23.003 1.351-34.326 3.93-19.035 12.577-35.703 26.065-49.78 1.288-1.345 2.696-2.565 4.323-3.491 1.027-.587 2.092-1.139 3.368-.29.234 1.691-1.06 2.566-2.036 3.517-4.72 4.601-9.497 9.146-12.653 15.058-.584 1.094-1.368 2.122-1.23 3.663 2.519-.364 3.561-3.091 5.885-3.592 1.09 1.048.287 1.954-.129 2.776-1.825 3.615-3.653 7.234-5.601 10.784-2.47 4.504-2.067 8.485 1.62 12.197 2.136 2.151 4.047 4.53 6 6.857.674.805 1.684 1.765.693 2.867-.869.967-2.07.505-3.07.038-3.289-1.537-5.644-3.934-6.65-7.507-.161-.568-.254-1.156-.425-1.72-.202-.674-.525-1.327-1.357-1.251-.915.082-1.293.797-1.309 1.605-.045 2.25.913 4.127 2.56 5.563 1.956 1.708 3.14 3.54 2.869 6.347-.219 2.254 1.434 3.537 3.555 3.293 2.874-.33 3.3 1.026 3.153 3.37-.084 1.326-.48 2.845.78 3.959 1.308-.542.969-1.629 1.108-2.46 1.946-11.594 5.974-22.469 11.376-32.858.693-1.334 1.48-3.724 3.153-2.936 1.947.917.18 2.847-.434 4.118-4.579 9.475-8.036 19.3-9.664 29.726-.616 3.947-.612 7.9-.112 11.856.094.746.445 1.62-.374 2.072-.934.515-1.555-.319-2.162-.866-.973-.879-1.38-2.091-1.85-3.271-.302-.754-.85-1.35-1.747-1.078-.887.269-1.007 1.04-.884 1.86.024.166.067.331.085.499.649 6.014-.866 7.274-6.625 5.515-3.411-1.042-6.498-2.819-9.72-4.29-3.722-1.698-4.84-1.105-4.807 2.861.033 3.792-.106 7.59.473 11.373.238 1.55.88 2.292 2.378 2.805 6.293 2.158 11.44 6.451 17.268 9.489.443.23.767.666.694 1.417-1.4 1.206-3.114.641-4.7.449-3.764-.455-7.081-2.132-10.297-4.034-.862-.51-1.848-1.32-2.781-.59-.951.745-.378 1.886-.022 2.816 2.052 5.357 4.15 10.697 6.19 16.058.538 1.411 1.676 2.087 2.92 2.628 7.517 3.268 15.082 6.365 23.313 7.422 2.48.319 4.18 1.045 4.927 4.252m21.046 67.942c.044-.747.29-1.555 1.154-1.807.963-.28 1.693.246 2.123 1.004.62 1.094 1.282 2.227 1.578 3.43 2.209 9.002 4.736 17.937 5.987 27.154.813 6-1.093 8.307-7.1 8.662-1.81.107-2.593-.435-2.723-2.313a127.987 127.987 0 0 0-5.648-29.761m-42.758-142.195c-.342 1.77.014 3.45 1.968 3.665 1.94.213 2.322-1.572 2.555-3.12.103-.684.054-1.441-.677-1.752-1.402-.596-2.624-.185-3.846 1.207m-3.796-.937c-.175-1.195-.077-2.76-1.814-2.655-.991.06-1.235 1.236-1.225 2.184.011 1.135.315 2.281 1.568 2.506 1.116.2 1.16-.927 1.471-2.035m.664-10.007c-.883-.44-1.882-1.214-2.59.061-.637 1.147.148 2.069.97 2.832.707.658 1.514.727 2.25.068 1.18-1.057.433-1.915-.63-2.961m-6.404-14.584c-.396 1.6-.84 3.212 1.112 4.266 1.15-2.334 1.116-3.774-.063-5.628-.624.055-.754.57-1.049 1.362m6.807-9.853c.07-.662.202-1.348-.811-1.674-1.693 1.266-2.682 2.812-2.032 5.267 1.694-.664 2.142-2.027 2.843-3.593m4.646 46.233c1.643.78 2.222.097 1.958-1.511-.16-.97-.83-1.627-1.754-1.966-.425-.157-.886-.06-1.101.347-.594 1.12-.28 2.089.897 3.13m-15.034-16.588c.545.694 1.17.808 1.562-.05.577-1.268.34-2.392-.975-3.294-1.099.91-1.015 1.959-.587 3.344m31.177 74.548c-.39-1.87-1.573-1.938-3.263-1.474.617 1.676 1.35 2.635 3.263 1.474m-8.159 4.68c.585.36 1.109 1.09 1.897.335-.9-1.566-.9-1.566-2.693-1.821-.156.58.273.893.796 1.485Z" fill="#353b47"/>
        <path d="M289.042 367.892c-.535 3.714-.653 7.278-1.884 10.631-.54 1.47-.954 3.523-2.937 3.24-2.121-.302-2.542-2.45-2.358-4.2.905-8.602 3.204-16.84 6.977-24.638.417-.862 1.05-2.034 2.268-1.467 1.164.542 1.105 1.83.823 2.916-1.14 4.392-2.603 8.711-2.889 13.518Z" fill="#353b47"/>
        <path d="M192.214 251.312c-2.021-6.277-4.234-12.31-4.715-19.346 2.174.934 2.4 2.416 2.807 3.67 2.423 7.464 5.251 14.754 9.19 21.567 1.516 2.623 3.153 5.177 4.666 7.801.619 1.073 1.196 2.221.86 3.683-1.821.465-2.646-.873-3.483-1.903-3.786-4.666-6.985-9.7-9.325-15.472Z" fill="#353b47"/>
        <path d="M243.038 355.245c1.54 7.66 2.484 15.151 1.607 22.77-.067.582-.151 1.171-.31 1.734-.272.965-.786 1.7-1.957 1.546-1.09-.145-1.603-.816-1.657-1.885-.442-8.747-.688-17.498-.399-26.256.025-.736.116-1.506.933-2.093 1.447.979 1.305 2.619 1.783 4.184Z" fill="#353b47"/>
        <path d="M222.435 416.44c.936-1.317 2.198-1.414 3.46-1.579 4.769-.625 9.558-.527 14.338-.303 1.311.061 2.865-.093 3.91 1.365-1.242 1.525-3.024 1.519-4.592 1.776-4.632.759-9.28 1.48-13.948 1.954-2.73.277-3.371-.531-3.168-3.213Z" fill="#353b47"/>
        <path d="M284.406 409.666c-1.961-.789-1.806-1.746-.44-2.742.459-.335 1.034-.527 1.578-.726 1.177-.428 2.3-.367 3.248.552.495.48.893 1.085.553 1.78-.609 1.245-1.874 1.258-3.016 1.373-.563.057-1.15-.124-1.923-.237Z" fill="#353b47"/>
        <path d="M251.822 413.55c.862 1.167.457 1.854-.575 2.304-.957.419-1.821.202-2.52-.54-.463-.49-.487-1.114-.024-1.593.88-.914 1.909-.933 3.12-.172Z" fill="#353b47"/>
        <path d="M234.416 451.289c-2.95.38-5.662 1.076-8.455.531-1.105-.216-2.313-.398-2.356-1.79-.043-1.414 1.23-1.693 2.277-1.917 5.053-1.082 10.174-.91 15.29-.696.59.025 1.125.29 1.569 1.268-2.372 1.892-5.401 1.792-8.325 2.604Z" fill="#353b47"/>
        <path d="M284.115 437.958c1.325-.098 2.737-.086 2.702 1.318-.048 1.952-1.558 3.1-3.313 3.685-1.052.35-2.305.39-2.749-.968-.487-1.49.24-2.615 1.534-3.355.501-.287 1.085-.43 1.826-.68Z" fill="#353b47"/>
        <path d="M248.458 448.033c.663-1.536 1.683-1.805 2.846-.946.677.5.424 1.259-.17 1.709-1.067.808-2.125 1.16-2.676-.763Z" fill="#353b47"/>
        <path d="M231.255 434.953c-2.23.241-4.232.682-6.26.349-1.188-.195-2.443-.502-2.512-2.017-.068-1.517 1.258-1.729 2.287-1.843 4.35-.485 8.717-.827 13.074-1.266 1.422-.144 2.826-.458 4.244-.637.98-.124 2.028-.346 3.017 1.21-4.071 3.073-9.008 3.173-13.85 4.204Z" fill="#353b47"/>
        <path d="M284.9 425.85c-1.613-.034-3.16-.118-3.134-1.972.028-1.946 1.577-2.682 3.25-2.94 1.56-.241 2.752.51 2.94 2.083.235 1.964-1.2 2.578-3.057 2.829Z" fill="#353b47"/>
        <path d="M252.536 428.187c.95.706 1.205 1.406.32 2.117-.784.63-1.676.654-2.556.177-.559-.304-.92-.79-.639-1.427.549-1.24 1.566-1.312 2.875-.867Z" fill="#353b47"/>
        <path d="M242.97 399.06c-4.338 1.81-8.854 1.718-13.225 2.45-2.315.388-4.641.735-7.013.615-1.747-.09-3.026-.902-3.162-2.618-.133-1.68 1.493-1.9 2.681-2.08 6.353-.963 12.724-.929 19.077.006.744.109 2.036-.015 1.641 1.628Z" fill="#353b47"/>
        <path d="M250.856 396.328c.846.403 1.671.81 1.238 1.692-.41.836-1.355.828-2.196.655-.606-.126-1.143-.448-1.041-1.157.146-1.02.902-1.284 2-1.19Z" fill="#353b47"/>
        <path d="M281.756 454.159c1.64.702 2.095 1.688 1.05 3.029-.915 1.174-3.2 1.32-4.102.303-.818-.919-.364-1.731.333-2.433.681-.689 1.555-.978 2.719-.9Z" fill="#353b47"/>
    </g>
</svg>
