<?xml version="1.0" encoding="utf-8"?>
<svg viewBox="0 0 500 500" xmlns="http://www.w3.org/2000/svg">
  <path d="M 119.709 152.554 C 119.709 143.931 122.728 136.816 128.764 131.21 C 134.801 125.605 142.65 122.803 152.308 122.803 C 161.794 122.803 169.47 125.562 175.334 131.081 C 181.37 136.773 184.388 144.189 184.388 153.331 C 184.388 161.61 181.457 168.508 175.592 174.029 C 169.556 179.719 161.622 182.567 151.791 182.567 L 151.531 182.567 C 142.046 182.567 134.37 179.719 128.506 174.029 C 122.642 168.336 119.709 161.179 119.709 152.554 Z M 123.072 378.933 L 123.072 206.11 L 180.508 206.11 L 180.508 378.933 L 123.072 378.933 Z M 212.33 378.933 L 269.766 378.933 L 269.766 282.431 C 269.766 276.395 270.456 271.737 271.836 268.46 C 274.25 262.596 277.915 257.637 282.831 253.585 C 287.746 249.531 293.913 247.505 301.329 247.505 C 320.647 247.505 330.306 260.526 330.306 286.571 L 330.306 378.933 L 387.741 378.933 L 387.741 279.844 C 387.741 254.317 381.705 234.956 369.631 221.762 C 357.557 208.567 341.603 201.971 321.769 201.971 C 299.518 201.971 282.184 211.542 269.766 230.688 L 269.766 231.205 L 269.507 231.205 L 269.766 230.688 L 269.766 206.11 L 212.33 206.11 C 212.676 211.629 212.848 228.791 212.848 257.594 C 212.848 286.398 212.676 326.845 212.33 378.933 Z" style="fill: rgb(255, 255, 255);"/>
</svg>