<?xml version="1.0" encoding="UTF-8"?>
<svg data-bbox="72.341 77.936 342.271 334.524" xmlns="http://www.w3.org/2000/svg" viewBox="0 0 500 500" data-type="ugc">
    <g>
        <path d="M405.965 243.724c-9.015 20.215-14.448 40.164-13.374 60.819.615 11.775 1.791 24.14.351 36.47-1.474 12.586-6.091 24.58-14.967 32.685-8.9 8.116-21.735 12.03-35.143 12.92-13.068.881-26.019-.74-38.327-1.608-11.068-.776-21.784-.66-31.598 1.922-10.009 2.64-19.948 8-30.795 13.534-11.65 5.94-23.839 11.242-36.273 11.926-12.194.671-24.011-3.66-33.551-10.548-18.847-13.65-31.858-32.198-44.173-49.067-11.714-16.059-19.443-34.005-25.315-52.75-5.646-18.026-15.523-36.088-24.54-56.303-25.762-57.81 39.515-73.497 62.858-96.607 6.417-6.356 11.835-14.137 16.98-22.577 5.666-9.309 11.17-19.497 18.785-28.517 7.805-9.239 18.008-16.429 29.633-17.818 11.696-1.401 23.945 2.836 35.596 8.776 10.847 5.534 20.556 11.647 30.307 15.815 9.118 3.89 18.765 6.23 28.39 8.012 20.875 3.856 41.646 8.742 59.09 20.239 18.106 11.96 35.31 27 46.986 46.092 11.695 19.161 9.075 44.17-.92 66.585" fill="none" stroke-width="3" stroke="#d44c4c"/>
    </g>
</svg>
