<?xml version="1.0" encoding="UTF-8"?>
<svg data-bbox="55.772 40.07 400.221 400.22" xmlns="http://www.w3.org/2000/svg" viewBox="0 0 500 500" data-type="color">
    <g>
        <path d="M252.287 378.381c-1.485-1.485-3.439-2.267-5.55-2.267s-4.064.86-5.55 2.267c-1.485 1.485-2.266 3.44-2.266 5.55 0 2.032.86 4.065 2.266 5.55 1.486 1.485 3.44 2.267 5.55 2.267s4.065-.86 5.55-2.267c1.486-1.485 2.267-3.44 2.267-5.55s-.86-4.143-2.267-5.55z" fill="#323e48" data-color="1"/>
        <path d="M289.495 306.232v-57.453c0-2.58-1.25-5.003-3.44-6.488-2.188-1.486-4.845-1.72-7.269-.782l-134.683 54.249H100.64c-24.7 0-44.868 20.089-44.868 44.868s20.167 44.868 44.868 44.868h5.16v46.98c0 4.299 3.517 7.816 7.816 7.816h31.893c4.3 0 7.817-3.517 7.817-7.817v-43.148l125.381 50.418c.938.39 1.954.547 2.892.547 1.564 0 3.049-.469 4.378-1.329a7.806 7.806 0 0 0 3.44-6.488v-57.531c15.71-3.596 27.436-17.588 27.436-34.316.078-16.728-11.725-30.798-27.359-34.394zM137.771 424.657h-16.337v-39.163h16.26l.077 39.163zm0-54.796h-37.13c-16.102 0-29.234-13.132-29.234-29.235s13.132-29.235 29.234-29.235h37.052l.078 58.47zm136.09 51.043L153.406 372.44v-63.628l85.516-34.473v77.621c0 4.3 3.517 7.817 7.816 7.817s7.817-3.517 7.817-7.817v-83.874l19.308-7.739v160.557zm15.634-62.3v-35.957c6.957 3.049 11.804 9.928 11.804 17.979 0 8.051-4.925 14.93-11.804 17.979z" fill="#323e48" data-color="1"/>
        <path d="M391.505 333.044H347.26c-4.299 0-7.816 3.517-7.816 7.816s3.517 7.817 7.816 7.817h44.244c4.299 0 7.816-3.517 7.816-7.817s-3.517-7.816-7.816-7.816z" fill="#323e48" data-color="1"/>
        <path d="M355.156 275.747a7.784 7.784 0 0 0-11.021 0l-15.321 15.242a7.784 7.784 0 0 0 0 11.022c1.563 1.563 3.517 2.267 5.55 2.267s3.986-.782 5.55-2.267l15.242-15.243a7.784 7.784 0 0 0 0-11.021z" fill="#323e48" data-color="1"/>
        <path d="m355.782 394.171-15.79-15.79a7.784 7.784 0 0 0-11.022 0 7.784 7.784 0 0 0 0 11.022l15.79 15.79c1.563 1.563 3.518 2.267 5.55 2.267s3.987-.782 5.55-2.267c2.97-3.049 2.97-7.973-.078-11.022z" fill="#323e48" data-color="1"/>
        <path d="M424.726 40.07H279.333c-17.275 0-31.267 13.992-31.267 31.267v3.127H116.744c-10.318 0-18.76 8.442-18.76 18.76V216.73c0 10.318 8.442 18.76 18.76 18.76h8.051v23.998c0 3.126 1.876 6.019 4.847 7.191.938.39 1.954.625 2.97.625 2.033 0 4.065-.781 5.55-2.266l29.47-29.47h155.241c10.318 0 18.76-8.442 18.76-18.76v-23.45h83.093c17.275 0 31.267-13.993 31.267-31.268V71.337c0-17.275-13.992-31.267-31.267-31.267zm-98.648 176.66a3.136 3.136 0 0 1-3.127 3.126H164.427c-2.111 0-4.065.86-5.55 2.267l-18.448 18.448v-12.898c0-4.299-3.518-7.817-7.817-7.817h-15.868a3.136 3.136 0 0 1-3.127-3.126V93.224a3.136 3.136 0 0 1 3.127-3.126h131.322v71.914c0 17.275 13.992 31.267 31.267 31.267h46.745v23.45zm114.282-54.718c0 8.599-7.036 15.634-15.634 15.634H279.333c-8.598 0-15.633-7.035-15.633-15.634V71.337c0-8.598 7.035-15.633 15.633-15.633h145.393c8.598 0 15.634 7.035 15.634 15.633v90.675z" fill="#323e48" data-color="1"/>
        <path d="m383.453 109.874-53.467-30.876a7.765 7.765 0 0 0-7.816 0 7.844 7.844 0 0 0-3.909 6.8v61.753a7.844 7.844 0 0 0 3.909 6.8c1.172.704 2.58 1.017 3.908 1.017s2.736-.313 3.908-1.016l53.467-30.877a7.844 7.844 0 0 0 3.909-6.8 7.844 7.844 0 0 0-3.909-6.801zm-49.636 24.154V99.32l30.094 17.354-30.094 17.353z" fill="#323e48" data-color="1"/>
        <path d="M223.443 122.146h-78.168c-4.299 0-7.816 3.518-7.816 7.817s3.517 7.817 7.816 7.817h78.168c4.3 0 7.817-3.518 7.817-7.817s-3.517-7.817-7.817-7.817z" fill="#323e48" data-color="1"/>
        <path d="M228.993 168.187c-1.485-1.485-3.44-2.267-5.55-2.267s-4.064.86-5.55 2.267c-1.485 1.486-2.266 3.44-2.266 5.55s.86 4.065 2.266 5.55c1.486 1.485 3.44 2.267 5.55 2.267 2.033 0 4.065-.86 5.55-2.267 1.485-1.485 2.267-3.44 2.267-5.55s-.86-4.064-2.267-5.55z" fill="#323e48" data-color="1"/>
        <path d="M194.13 165.92h-48.855c-4.299 0-7.816 3.518-7.816 7.817s3.517 7.817 7.816 7.817h48.855c4.3 0 7.817-3.517 7.817-7.817s-3.517-7.817-7.817-7.817z" fill="#323e48" data-color="1"/>
    </g>
</svg>
