<?xml version="1.0" encoding="UTF-8"?>
<svg data-bbox="52.829 106.85 404.136 266.679" xmlns="http://www.w3.org/2000/svg" viewBox="0 0 500 500" data-type="color">
    <g>
        <path d="M115.656 107.652c-5.033 2.288-5.491 3.05-21.736 34.55-4.73 9.229-15.865 30.584-24.636 47.593-14.872 28.6-16.093 31.27-16.398 35.542-.381 5.11 1.144 9.152 4.576 12.279 3.204 2.975 40.652 21.584 43.474 21.584 3.966 0 7.475-1.296 10.754-3.966l3.051-2.364 3.127 1.602c2.136 1.144 3.738 2.822 5.034 5.262 1.068 1.983 3.661 5.95 5.873 8.771l3.966 5.11-1.068 3.204c-2.517 7.093-.991 13.118 4.958 18.991 4.118 4.195 8.008 6.102 12.355 6.102 1.83 0 1.983.305 2.289 4.728.152 2.67.915 6.102 1.677 7.627 3.051 6.33 9.687 10.526 16.78 10.602 4.195.076 4.271.152 4.271 2.288 0 8.542 8.924 16.78 18.61 17.16l4.576.23.992 3.355c1.22 4.119 6.177 9.916 10.449 12.204 4.576 2.44 12.66 2.364 17.008-.153l3.28-1.907 1.677 1.526c13.881 12.28 15.636 13.347 22.729 13.88 4.042.23 5.796 0 9-1.372 6.101-2.67 12.355-10.296 12.355-15.254 0-1.907.077-1.907 4.043.153 4.5 2.44 14.033 2.44 18.533.076 5.873-3.127 10.983-10.373 10.983-15.636 0-1.983.153-2.135 1.754-1.601.916.305 4.577.61 8.161.61 5.644 0 6.94-.229 9.915-2.06 6.102-3.584 9.763-8.847 11.06-16.016.533-2.746.61-2.822 2.974-2.288 3.585.839 8.085.61 12.28-.61 5.11-1.45 11.745-7.932 13.576-13.271 2.593-7.627 1.067-15.407-4.119-21.356l-2.974-3.432 2.44-1.754c11.364-8.237 14.797-11.136 19.678-16.627 3.127-3.432 6.254-6.56 7.017-6.94 1.067-.535 2.059 0 4.728 2.669 3.28 3.28 7.093 5.034 11.136 5.034 1.907 0 40.118-12.432 43.474-14.11 4.423-2.288 7.627-7.704 7.627-13.043 0-2.669-4.958-18.762-19.144-61.473-20.517-62.16-20.135-61.397-26.39-64.296-5.033-2.44-9.076-1.678-29.897 5.263-10.678 3.585-20.517 7.322-21.966 8.237-3.737 2.593-6.636 8.771-6.178 13.5l.381 3.66-7.169 2.518c-6.712 2.364-7.703 2.44-13.805 2.059-3.66-.229-14.72-1.983-24.559-3.89-20.593-3.89-31.957-5.567-42.482-6.254-13.805-.915-20.67 1.602-33.712 12.127l-7.855 6.407-13.119.457c-18.305.687-21.203.23-31.88-5.491l-8.772-4.653.382-3.813c.457-4.653-1.22-9.534-4.271-12.432-1.145-1.144-10.526-6.407-20.746-11.746-17.008-8.77-19.067-9.686-23.262-9.915-2.746-.152-5.492.153-6.865.763zm25.398 17.084c9.534 4.958 18.076 9.763 19.068 10.678.915.915 1.678 2.517 1.678 3.585 0 1.678-53.618 106.625-55.754 109.295-.457.457-1.83 1.144-3.05 1.373-1.83.457-5.187-.992-20.364-8.771-9.916-5.11-18.687-9.992-19.373-10.83-.763-.84-1.373-2.518-1.373-3.738 0-1.297 5.873-13.423 15.102-31.347 8.39-16.093 18.838-36.457 23.414-45.228 17.314-33.788 17.466-33.94 21.204-33.94 1.296 0 9 3.508 19.448 8.923zm268.09-4.5c1.372 1.526 38.668 113.49 38.668 116.16 0 4.118-1.449 4.881-22.042 11.745-20.821 6.94-22.728 7.246-24.787 3.89-1.297-1.983-38.593-114.024-38.593-115.778 0-3.508 3.127-5.11 21.356-11.212 18.686-6.254 23.262-7.169 25.397-4.805zM280.78 146.855c4.424.61 16.093 2.67 25.932 4.576 11.288 2.135 21.05 3.508 26.313 3.737 8.085.381 8.695.305 16.17-2.288l7.855-2.67 15.635 47.44c8.619 26.085 15.636 47.822 15.636 48.28 0 .457-1.22 1.372-2.67 2.059-1.449.686-3.966 2.745-5.567 4.5-6.636 7.55-13.195 13.5-19.22 17.618-6.255 4.195-8.619 5.11-9.534 3.661-.23-.381-8.924-8.085-19.297-17.008-45.762-39.584-74.668-64.448-76.65-65.974-1.221-.915-3.662-1.907-5.569-2.212-2.745-.381-4.118-.152-7.474 1.526-7.55 3.66-11.364 9.762-12.66 20.059-2.289 17.694-12.51 32.262-22.653 32.262-5.263 0-4.958 1.297-5.186-26.77-.153-14.72.076-26.238.533-27.382.992-2.67 5.34-7.017 17.771-17.847 22.576-19.678 27.381-23.262 33.712-24.864 3.584-.839 16.245-.305 26.923 1.297zm-105.71 10.906c4.805 2.593 9.839 5.034 11.288 5.415 1.373.458 7.78 1.068 14.262 1.297l11.67.534-7.094 6.254c-4.347 3.737-8.16 7.856-9.61 10.297-2.364 3.966-4.5 12.203-3.508 13.804.229.458.534 11.746.61 25.093l.076 24.254 2.441 2.517c2.975 3.05 6.712 4.347 12.432 4.347 14.339 0 28.449-17.923 31.195-39.736.915-7.322 2.211-9.992 6.101-12.585 2.975-1.983 3.05-1.983 5.11-.61 1.22.763 9.534 7.703 18.534 15.483 89.312 77.033 89.007 76.804 90.456 80.617 2.06 5.415-.153 11.67-5.186 14.797-3.28 1.983-9.305 2.059-12.432.076-1.22-.763-9-7.246-17.161-14.263a22875.362 22875.362 0 0 1-26.16-22.576c-6.179-5.415-12.128-9.99-13.195-10.22-2.899-.762-5.644 1.45-5.644 4.5 0 1.373.457 3.051.991 3.737.458.61 11.136 9.992 23.72 20.822 12.508 10.83 23.415 20.746 24.178 22.042 2.135 3.509 1.906 9.305-.382 12.737-3.28 4.805-10.296 6.712-15.101 4.195-1.144-.61-11.898-9.61-23.949-20.059-24.101-20.898-25.932-22.347-28.067-22.347-2.06 0-5.034 2.975-5.034 5.034 0 2.44 1.068 3.432 21.356 20.898 9.838 8.39 18.838 16.55 20.059 18.076 5.643 7.398-.61 18.457-9.992 17.542-3.813-.381-4.5-.915-26.694-20.135-8.848-7.704-16.932-14.34-18.076-14.873-1.678-.763-2.288-.61-4.043.686-2.898 2.212-3.127 5.187-.381 8.009 1.144 1.296 7.474 6.864 14.034 12.508 6.559 5.644 12.28 11.06 12.737 12.127.534 1.068.915 3.356.915 5.034 0 7.322-6.178 12.356-13.424 11.059-2.135-.458-9.838-6.178-16.169-12.203-.762-.763-.534-1.678 1.144-4.729 2.67-4.652 2.899-11.212.61-15.94-1.449-2.899-7.474-9.534-8.77-9.534-.306 0-1.831-.534-3.28-1.144l-2.746-1.144 2.06-3.585c2.745-4.805 2.898-12.66.38-17.466-2.516-4.729-7.169-8.466-12.431-9.991l-4.576-1.373v-4.119c0-5.72-1.297-9.533-4.653-13.347-6.178-7.017-16.474-8.542-24.33-3.66l-3.661 2.287-2.136-3.28a20.41 20.41 0 0 0-17.237-9.533c-5.262 0-8.77 1.754-13.347 6.635l-3.966 4.195-1.907-2.135c-1.067-1.22-2.67-3.509-3.66-5.11-5.11-8.466-6.484-10.144-9.916-11.975-1.983-1.068-3.813-2.212-4.118-2.44-.458-.534 4.728-10.755 42.253-83.211 2.365-4.5 4.348-8.16 4.5-8.16.153 0 4.195 2.058 8.924 4.575zm-12.28 108.761c2.67 1.983 4.348 5.034 4.348 8.009 0 2.67-3.127 7.245-9.687 14.186-3.203 3.508-4.118 4.042-6.635 4.042-7.093 0-12.966-7.17-10.45-12.737 1.298-2.746 11.365-14.567 12.89-15.025 2.517-.687 7.628.076 9.534 1.525zm31.118 6.788c5.187 2.746 6.712 9.458 3.356 14.415-3.508 5.187-20.135 25.475-21.89 26.695-.99.686-3.279 1.22-5.338 1.22-6.33 0-10.678-5.415-9.458-11.67.534-2.821 20.593-28.372 23.95-30.43 2.592-1.679 6.406-1.755 9.38-.23zm19.754 25.398c1.068.763 2.594 2.593 3.356 4.043 2.288 4.194 1.297 7.245-4.957 15.025-13.958 17.313-16.17 18.991-22.424 16.55-5.339-1.983-7.855-7.55-5.796-12.737.839-2.059 16.856-21.66 18.839-23.11 3.203-2.211 7.703-2.135 10.982.23zm10.754 31.5c4.043 1.983 6.56 7.17 5.34 10.754-1.297 3.585-8.162 11.135-10.755 11.67-5.491 1.22-11.364-3.28-11.974-9.077-.381-3.28-.229-3.737 3.585-8.313 5.644-7.017 8.16-7.932 13.804-5.034z" fill="#ffffff" data-color="1"/>
    </g>
</svg>
