<?xml version="1.0" encoding="UTF-8"?>
<svg data-bbox="63.142 86.697 364.806 311.118" xmlns="http://www.w3.org/2000/svg" viewBox="0 0 500 500" data-type="color">
    <g>
        <g>
            <g>
                <path d="M239.586 305.76a4.858 4.858 0 0 0-4.816 5.466 4.976 4.976 0 0 0 5.002 4.249h22.94a4.978 4.978 0 0 0 5.004-4.25 4.86 4.86 0 0 0-4.82-5.466h-23.31Z" fill="#ffffff" data-color="1"/>
                <path d="M280.668 370.621h-87.174c-6.083 0-11.015 5.073-11.015 11.331v4.533c0 6.258 4.932 11.33 11.015 11.33h110.147c6.083-.001 11.014-5.073 11.015-11.33v-4.533c-.001-6.257-4.932-11.329-11.015-11.33h-22.973Zm24.544 11.331v4.533c0 .894-.703 1.618-1.574 1.618H194.122a1.598 1.598 0 0 1-1.573-1.618v-4.533c0-.893.704-1.617 1.573-1.618h109.516c.87 0 1.574.724 1.574 1.618Zm-79.306-11.33h45.319-45.32Z" fill="#ffffff" data-color="1"/>
                <path d="M122.687 352.02c-2.277.002-4.037 2.106-3.752 4.484.284 2.028 1.951 3.519 3.898 3.486h17.87c1.944.033 3.611-1.458 3.895-3.486.284-2.378-1.476-4.482-3.754-4.484h-18.157Z" fill="#ffffff" data-color="1"/>
                <path fill="#ffffff" d="M388.088 355.567a5.58 5.58 0 1 1-11.16 0 5.58 5.58 0 0 1 11.16 0z" data-color="1"/>
            </g>
        </g>
        <path d="M427.948 371.386c-1.541 5.883-5.298 9.79-10.784 12.185-.338.148-68.102-.058-68.102-.058s-2.269-.47-3.267-1.056c-5.883-3.44-8.998-8.588-9.03-15.389-.044-8.99.113-17.981.215-26.973.012-1.085-.305-1.554-1.474-1.552-18 .026-36 .024-54.001.002-1.09 0-1.551.317-1.548 1.48a4596.86 4596.86 0 0 1-.004 31.284c-.004 1.293-57.302 1.17-57.311-.33-.06-10.171-.065-20.343.004-30.514.01-1.626-.586-1.95-2.056-1.934-6.077.068-12.156.1-18.232-.015-1.81-.035-2.142.62-2.13 2.244.067 8.993.04 17.986.03 26.98-.007 6.732-4.627 13.301-10.914 15.625-.514.19-115.406.068-115.991-.229-5.952-3.016-9.747-7.539-10.203-14.448-.024-.372.012-3.262.013-3.95.029-10.862.02-21.724.02-32.587 0-42.331-.015-84.662.02-126.994.005-4.746 2.307-8.522 5.765-11.588 4.044-3.587 8.971-4.472 14.187-4.387 2.748.045 2.75.007 2.75-2.66 0-26.193 0-52.386.002-78.58 0-.681-.048-1.376.057-2.044 1.5-9.515 8.277-16.836 17.673-19.17.337-.084 295.675.014 296.12.14 10.667 3.007 17.295 11.778 17.295 22.91.001 41.38.009 82.759-.03 124.137-.002 1.55.378 2.453 1.855 3.17 4.46 2.165 7.314 5.788 8.902 10.455m-238.94-57.03c7.228 2.92 11.216 8.812 11.217 16.573 0 16.388-.002 32.777.005 49.166 0 .739.075 1.479.027 2.557v22.26H336.91c0-7.63 0-15.132.054-22.97l.003-5.584c.007-9.573 7.548-17.123 17.1-17.136 9.492-.013 18.984-.044 28.806-.012h22.572v-1.855c0-40.846 0-81.69-.002-122.536 0-.496-.026-.991-.037-1.488-.17-7.47-6.335-11.647-12.504-11.64-94.477.12-188.955.083-283.432.083-7.188 0-12.016 4.82-12.016 12.006-.003 25.823 0 51.646 0 77.469v2.018c7.717 0 15.214 0 23.054.065 17.917.005 35.836.012 53.753.012.99 0 1.98-.052 3.305-.016 3.694.28 7.389.56 11.273 1.028m-114.17 39.468c0 45.438-.002 90.877 0 136.315 0 4.379 2.138 6.536 6.46 6.536h101.12c4.133 0 6.4-2.278 6.402-6.458.003-52.95.003-105.9-.001-158.85 0-4.185-2.255-6.469-6.424-6.47-33.707-.008-67.413-.007-101.12 0-4.234 0-6.43 2.196-6.435 6.393-.009 7.387-.003 14.774-.003 22.534M391.91 372.829c6.205 0 12.411.004 18.617 0 3.96-.004 6.211-2.24 6.212-6.218.006-37.856.006-75.711 0-113.567-.002-3.855-2.283-6.115-6.126-6.116-18.68-.004-37.359-.004-56.039 0-3.84.001-6.117 2.263-6.118 6.123-.007 37.856-.007 75.711-.001 113.567.001 3.976 2.254 6.21 6.22 6.21 12.287.003 24.575.001 37.235.001m-181.033-80.086h-10.665v34.147h136.631v-34.147H210.877m23.464 72.45v7.53h34.032v-34.055h-34.032v26.526Z" fill="#ffffff" data-color="1"/>
    </g>
</svg>
