<?xml version="1.0" encoding="UTF-8"?>
<svg data-bbox="54.303 70.554 388.863 347.101" xmlns="http://www.w3.org/2000/svg" viewBox="0 0 500 500" data-type="ugc">
    <g>
        <g>
            <g transform="translate(54.397 35.937) scale(1.85013)">
                <path d="M37.065 103.008h20.234a8.607 8.607 0 0 0 16.086 0h3.951a3.156 3.156 0 0 0 3.172-2.694 3.079 3.079 0 0 0-3.056-3.464H73.38a8.607 8.607 0 0 0-16.086 0H36.942a3.079 3.079 0 0 0-3.054 3.464 3.156 3.156 0 0 0 3.177 2.694Zm28.278-5.655a2.464 2.464 0 1 1-2.463 2.463 2.466 2.466 0 0 1 2.463-2.463Z" fill="#ffffff"/>
                <path d="M37.065 85.356h3.814a8.607 8.607 0 0 0 16.084 0h20.372a3.156 3.156 0 0 0 3.172-2.694 3.08 3.08 0 0 0-3.056-3.466H56.963a8.606 8.606 0 0 0-16.084 0h-3.932a3.08 3.08 0 0 0-3.054 3.466 3.156 3.156 0 0 0 3.172 2.694Zm11.856-5.655a2.463 2.463 0 1 1-2.463 2.463 2.465 2.465 0 0 1 2.463-2.463Z" fill="#ffffff"/>
                <path fill="#ffffff" d="M81.147 53.838a3.079 3.079 0 1 1-6.158 0 3.079 3.079 0 0 1 6.158 0z"/>
                <path fill="#ffffff" d="M72.663 53.838a3.079 3.079 0 1 1-6.158 0 3.079 3.079 0 0 1 6.158 0z"/>
                <path fill="#ffffff" d="M64.179 53.838a3.079 3.079 0 1 1-6.158 0 3.079 3.079 0 0 1 6.158 0z"/>
                <path d="M98.165 82.317V49.375a7.184 7.184 0 0 0-7.184-7.184l-60.402.06a7.186 7.186 0 0 0-7.184 7.184v67.326a5.132 5.132 0 0 0 5.133 5.131l44.867.001 19.648-.06a5.13 5.13 0 0 0 5.131-5.131m-6.157-50.29v49.263l-62.454.06V66.471l62.454-.059Zm-62.454-6.097v-10.88c0-.566.459-1.025 1.025-1.026l60.402-.06c.567 0 1.026.459 1.027 1.026v10.879l-62.454.061Z" fill="#ffffff"/>
                <path d="M186.7 82.423V49.481a7.184 7.184 0 0 0-7.184-7.184l-60.402.06a7.186 7.186 0 0 0-7.184 7.184v67.326a5.132 5.132 0 0 0 5.133 5.131l44.867.001 19.648-.06a5.13 5.13 0 0 0 5.131-5.131m-6.157-50.29v49.263l-62.454.06V66.577l62.454-.059Zm-62.454-6.097v-10.88c0-.566.459-1.025 1.025-1.026l60.402-.06c.567 0 1.026.459 1.027 1.026V60.36l-62.454.061Z" fill="#ffffff"/>
                <path fill="#ffffff" d="M170.205 53.866a3.079 3.079 0 1 1-6.158 0 3.079 3.079 0 0 1 6.158 0z"/>
                <path fill="#ffffff" d="M161.742 53.866a3.079 3.079 0 1 1-6.158 0 3.079 3.079 0 0 1 6.158 0z"/>
                <path fill="#ffffff" d="M153.279 53.866a3.079 3.079 0 1 1-6.158 0 3.079 3.079 0 0 1 6.158 0z"/>
                <text y="86.527" x="137.74" style="white-space:pre" fill="#ffffff" font-family="Arial,sans-serif" font-size="4.8"> </text>
                <path d="m122.552 92.323 53.538.165a3.157 3.157 0 0 0 3.172-2.694c.232-1.84-1.188-1.861-3.042-1.86l-53.772-.165c-1.854.001-3.301.021-3.068 1.86a3.156 3.156 0 0 0 3.172 2.694Z" fill="#ffffff"/>
                <path d="m122.505 72.015 53.538.165c1.583.025 2.987.731 3.219-.835a3.08 3.08 0 0 0-3.056-3.466l-53.772-.165a3.08 3.08 0 0 0-3.054 3.466c.231 1.566 1.541.86 3.125.835Z" fill="#ffffff"/>
                <path d="m174.704 70.718.016 18.502c-.024.727-.463 1.35 1.103 1.454 1.84.106 3.467-.556 3.465-1.407l-.016-18.609c-.002-.852-1.628-1.508-3.467-1.4-1.566.108-1.127.732-1.1 1.46Z" fill="#ffffff"/>
                <path d="m119.351 70.58.016 18.503c-.024.727 1.13 1.349 2.695 1.453 1.84.106 1.618-.604 1.616-1.455l-.016-18.609c-.002-.852.22-1.46-1.618-1.352-1.566.108-2.719.733-2.693 1.46Z" fill="#ffffff"/>
                <path d="M156.306 71.207c0 2.345-.049 5.945-.115 8.278-.049 1.737-.105 3.472-.105 5.216v1.835c0 .245-.051 2.065.021 1.996.3-.282 2.032-1.309 2.493-1.309 1.28 0 2.11-.727 3.103-1.514 5.663-4.484 1.057-13.617-5.859-13.62" stroke-width="4.324" stroke="#ffffff" fill="none"/>
                <path d="M139.184 88.673c.955-2.646 1.539-4.637 2.491-7.095.579-1.495 1.041-3.081 1.663-4.567.574-1.37.971-2.801 1.522-4.232.111-.288.471-1.462.833-1.643.257-.128.183-.245.299.018.273.618.65 1.99.833 2.64.912 3.238 1.893 6.109 2.891 9.394.399 1.312.802 2.794 1.191 4.079.049.162.157.549.808 1.869" stroke-width="4.324" stroke="#ffffff" fill="none"/>
            </g>
        </g>
        <g>
            <g>
                <path d="M234.447 315.156a5.698 5.698 0 0 0-5.65 6.412 5.837 5.837 0 0 0 5.869 4.985h26.91a5.839 5.839 0 0 0 5.868-4.985 5.702 5.702 0 0 0-5.654-6.412h-27.343Z" fill="#ffffff"/>
                <path d="M426.1 70.554H71.385a17.09 17.09 0 0 0-17.082 17.09v236.211c.002 11.536 9.352 20.886 20.888 20.884h134.813v41.016h-27.727a13.291 13.291 0 0 0-13.292 13.291v5.317a13.291 13.291 0 0 0 13.292 13.292h132.917a13.295 13.295 0 0 0 13.291-13.292v-5.317a13.295 13.295 0 0 0-13.291-13.291h-27.725v-40.253h60.657a5.843 5.843 0 0 0 5.869-4.985 5.698 5.698 0 0 0-5.654-6.409H75.183a9.495 9.495 0 0 1-9.497-9.496v-17.086h366.089v20.906a5.676 5.676 0 0 1-5.673 5.673h-52.61a3.534 3.534 0 0 0-2.655 1.186c-3.075 2.862-1.898 7.981 2.119 9.213a5.452 5.452 0 0 0 1.853.233h47.471c11.536.002 20.886-9.348 20.886-20.884V87.623A17.086 17.086 0 0 0 426.1 70.556l.002-.002ZM317.088 399.046v5.317c0 1.05-.85 1.899-1.898 1.899H183.032a1.9 1.9 0 0 1-1.896-1.899v-5.317a1.9 1.9 0 0 1 1.896-1.898H315.19c1.049 0 1.898.85 1.898 1.898Zm-95.7-53.546h54.688v40.255h-54.688V345.5Zm122.97-255.2H150.832a5.852 5.852 0 0 0-5.45 3.565c-1.797 4.036 1.154 8.585 5.572 8.589h261.072v173.172h-3.094l-323.512-.002V102.452h38.187a5.84 5.84 0 0 0 5.869-4.984 5.698 5.698 0 0 0-5.654-6.41H84.278a9.491 9.491 0 0 0-9.493 9.494v177.727a9.491 9.491 0 0 0 9.493 9.493h329.634a9.491 9.491 0 0 0 9.493-9.493V99.797a9.495 9.495 0 0 0-9.493-9.497h-9.001m21.15-8.355a5.698 5.698 0 0 1 5.697 5.698l.028 208.48h-366.1V87.643a5.698 5.698 0 0 1 5.698-5.698" fill="#ffffff"/>
            </g>
        </g>
        <path stroke-width="9" stroke="#ffffff" fill="none" d="m314.462 189.788 16.171-.699"/>
    </g>
</svg>
